<svg id="SvgjsSvg1602" width="912" height="669" xmlns="http://www.w3.org/2000/svg" version="1.1" xmlns:xlink="http://www.w3.org/1999/xlink" xmlns:svgjs="http://svgjs.com/svgjs"><defs id="SvgjsDefs1603"><marker id="SvgjsMarker1627" markerWidth="12" markerHeight="8" refX="9" refY="4" viewBox="0 0 12 8" orient="auto" markerUnits="userSpaceOnUse" stroke-dasharray="0,0"><path id="SvgjsPath1628" d="M0,0 L12,4 L0,8 L0,0" fill="#323232" stroke="#323232" stroke-width="1"></path></marker></defs><rect id="svgbackgroundid" width="912" height="669" fill="#ffffff"></rect><g id="SvgjsG1605" transform="translate(25,37)"><path id="SvgjsPath1606" d="M 0 0L 862 0L 862 607L 0 607Z" stroke="none" fill-opacity="1" fill="#ffffff"></path><g id="SvgjsG1607"><text id="SvgjsText1608" font-family="微软雅黑" text-anchor="middle" font-size="20px" width="842px" fill="#323232" font-weight="400" align="middle" lineHeight="125%" anchor="middle" family="微软雅黑" size="20px" weight="400" font-style="" opacity="1" y="285.5" transform="rotate(0)"></text></g></g><g id="SvgjsG1609" transform="translate(104,385)"><path id="SvgjsPath1610" d="M 0 0L 696 0L 696 144L 0 144Z" stroke-dasharray="10,6" stroke="rgba(33,41,48,1)" stroke-width="1" fill-opacity="1" fill="#ffffff"></path><g id="SvgjsG1611"><text id="SvgjsText1612" font-family="微软雅黑" text-anchor="middle" font-size="20px" width="676px" fill="#323232" font-weight="400" align="middle" lineHeight="125%" anchor="middle" family="微软雅黑" size="20px" weight="400" font-style="" opacity="1" y="54" transform="rotate(0)"></text></g></g><g id="SvgjsG1613" transform="translate(104,289)"><path id="SvgjsPath1614" d="M 0 0L 200 0L 200 62L 0 62Z" stroke="rgba(33,41,48,1)" stroke-width="1" fill-opacity="1" fill="#ffcdd2"></path><g id="SvgjsG1615"><text id="SvgjsText1616" font-family="微软雅黑" text-anchor="middle" font-size="20px" width="180px" fill="#323232" font-weight="400" align="middle" lineHeight="125%" anchor="middle" family="微软雅黑" size="20px" weight="400" font-style="" opacity="1" y="13" transform="rotate(0)"><tspan id="SvgjsTspan1617" dy="25" x="100"><tspan id="SvgjsTspan1618" style="text-decoration:;">CMD</tspan></tspan></text></g></g><g id="SvgjsG1619" transform="translate(574,289)"><path id="SvgjsPath1620" d="M 0 0L 225 0L 225 62L 0 62Z" stroke="rgba(33,41,48,1)" stroke-width="1" fill-opacity="1" fill="#ffcdd2"></path><g id="SvgjsG1621"><text id="SvgjsText1622" font-family="微软雅黑" text-anchor="middle" font-size="20px" width="205px" fill="#323232" font-weight="400" align="middle" lineHeight="125%" anchor="middle" family="微软雅黑" size="20px" weight="400" font-style="" opacity="1" y="13" transform="rotate(0)"><tspan id="SvgjsTspan1623" dy="25" x="112.5"><tspan id="SvgjsTspan1624" style="text-decoration:;">Gin Server</tspan></tspan></text></g></g><g id="SvgjsG1625"><path id="SvgjsPath1626" d="M304.5 320L439 320L439 320L572.2 320" stroke="#323232" stroke-width="1" fill="none" marker-end="url(#SvgjsMarker1627)"></path><rect id="SvgjsRect1629" width="38" height="25" x="419.35" y="307.5" fill="#ffffff"></rect><text id="SvgjsText1630" font-family="微软雅黑" text-anchor="middle" font-size="20px" width="38px" fill="#323232" font-weight="400" align="top" lineHeight="25px" anchor="middle" family="微软雅黑" size="20px" weight="400" font-style="" opacity="1" y="302" transform="rotate(0)"><tspan id="SvgjsTspan1631" dy="25" x="438.35"><tspan id="SvgjsTspan1632" style="text-decoration:;">Run</tspan></tspan></text></g><g id="SvgjsG1633" transform="translate(104,573)"><path id="SvgjsPath1634" d="M 0 0L 200 0L 200 50L 0 50Z" stroke="rgba(33,41,48,1)" stroke-width="1" fill-opacity="1" fill="#fff9c4"></path><g id="SvgjsG1635"><text id="SvgjsText1636" font-family="微软雅黑" text-anchor="middle" font-size="20px" width="180px" fill="#323232" font-weight="400" align="middle" lineHeight="125%" anchor="middle" family="微软雅黑" size="20px" weight="400" font-style="" opacity="1" y="7" transform="rotate(0)"><tspan id="SvgjsTspan1637" dy="25" x="100"><tspan id="SvgjsTspan1638" style="text-decoration:;">chain rpc call</tspan></tspan></text></g></g><g id="SvgjsG1639" transform="translate(319,573)"><path id="SvgjsPath1640" d="M 0 0L 248 0L 248 50L 0 50Z" stroke="rgba(33,41,48,1)" stroke-width="1" fill-opacity="1" fill="#fff9c4"></path><g id="SvgjsG1641"><text id="SvgjsText1642" font-family="微软雅黑" text-anchor="middle" font-size="20px" width="228px" fill="#323232" font-weight="400" align="middle" lineHeight="125%" anchor="middle" family="微软雅黑" size="20px" weight="400" font-style="" opacity="1" y="7" transform="rotate(0)"><tspan id="SvgjsTspan1643" dy="25" x="124"><tspan id="SvgjsTspan1644" style="text-decoration:;">data tcp transfer</tspan></tspan></text></g></g><g id="SvgjsG1645" transform="translate(585,573)"><path id="SvgjsPath1646" d="M 0 0L 215 0L 215 50L 0 50Z" stroke="rgba(33,41,48,1)" stroke-width="1" fill-opacity="1" fill="#fff9c4"></path><g id="SvgjsG1647"><text id="SvgjsText1648" font-family="微软雅黑" text-anchor="middle" font-size="20px" width="195px" fill="#323232" font-weight="400" align="middle" lineHeight="125%" anchor="middle" family="微软雅黑" size="20px" weight="400" font-style="" opacity="1" y="7" transform="rotate(0)"><tspan id="SvgjsTspan1649" dy="25" x="107.5"><tspan id="SvgjsTspan1650" style="text-decoration:;">http service</tspan></tspan></text></g></g><g id="SvgjsG1651" transform="translate(104,123)"><path id="SvgjsPath1652" d="M 0 4Q 0 0 4 0L 122 0Q 126 0 126 4L 126 37Q 126 41 122 41L 4 41Q 0 41 0 37Z" stroke="rgba(33,41,48,1)" stroke-width="1" fill-opacity="1" fill="#b2ebf2"></path><g id="SvgjsG1653"><text id="SvgjsText1654" font-family="微软雅黑" text-anchor="middle" font-size="20px" width="106px" fill="#323232" font-weight="400" align="middle" lineHeight="125%" anchor="middle" family="微软雅黑" size="20px" weight="400" font-style="" opacity="1" y="2.5" transform="rotate(0)"><tspan id="SvgjsTspan1655" dy="25" x="63"><tspan id="SvgjsTspan1656" style="text-decoration:;">Config</tspan></tspan></text></g></g><g id="SvgjsG1657" transform="translate(104,176)"><path id="SvgjsPath1658" d="M 0 4Q 0 0 4 0L 168 0Q 172 0 172 4L 172 37Q 172 41 168 41L 4 41Q 0 41 0 37Z" stroke="rgba(33,41,48,1)" stroke-width="1" fill-opacity="1" fill="#b2ebf2"></path><g id="SvgjsG1659"><text id="SvgjsText1660" font-family="微软雅黑" text-anchor="middle" font-size="20px" width="152px" fill="#323232" font-weight="400" align="middle" lineHeight="125%" anchor="middle" family="微软雅黑" size="20px" weight="400" font-style="" opacity="1" y="2.5" transform="rotate(0)"><tspan id="SvgjsTspan1661" dy="25" x="86"><tspan id="SvgjsTspan1662" style="text-decoration:;">Buy Space</tspan></tspan></text></g></g><g id="SvgjsG1663" transform="translate(104,229)"><path id="SvgjsPath1664" d="M 0 4Q 0 0 4 0L 225 0Q 229 0 229 4L 229 40Q 229 44 225 44L 4 44Q 0 44 0 40Z" stroke="rgba(33,41,48,1)" stroke-width="1" fill-opacity="1" fill="#b2ebf2"></path><g id="SvgjsG1665"><text id="SvgjsText1666" font-family="微软雅黑" text-anchor="middle" font-size="20px" width="209px" fill="#323232" font-weight="400" align="middle" lineHeight="125%" anchor="middle" family="微软雅黑" size="20px" weight="400" font-style="" opacity="1" y="4" transform="rotate(0)"><tspan id="SvgjsTspan1667" dy="25" x="114.5"><tspan id="SvgjsTspan1668" style="text-decoration:;">Manage Bucket</tspan></tspan></text></g></g><g id="SvgjsG1669" transform="translate(288,176)"><path id="SvgjsPath1670" d="M 0 4Q 0 0 4 0L 162 0Q 166 0 166 4L 166 37Q 166 41 162 41L 4 41Q 0 41 0 37Z" stroke="rgba(33,41,48,1)" stroke-width="1" fill-opacity="1" fill="#b2ebf2"></path><g id="SvgjsG1671"><text id="SvgjsText1672" font-family="微软雅黑" text-anchor="middle" font-size="20px" width="146px" fill="#323232" font-weight="400" align="middle" lineHeight="125%" anchor="middle" family="微软雅黑" size="20px" weight="400" font-style="" opacity="1" y="2.5" transform="rotate(0)"><tspan id="SvgjsTspan1673" dy="25" x="83"><tspan id="SvgjsTspan1674" style="text-decoration:;">Authorize </tspan></tspan></text></g></g><g id="SvgjsG1675" transform="translate(244,123)"><path id="SvgjsPath1676" d="M 0 4Q 0 0 4 0L 215 0Q 219 0 219 4L 219 37Q 219 41 215 41L 4 41Q 0 41 0 37Z" stroke="rgba(33,41,48,1)" stroke-width="1" fill-opacity="1" fill="#b2ebf2"></path><g id="SvgjsG1677"><text id="SvgjsText1678" font-family="微软雅黑" text-anchor="middle" font-size="20px" width="199px" fill="#323232" font-weight="400" align="middle" lineHeight="125%" anchor="middle" family="微软雅黑" size="20px" weight="400" font-style="" opacity="1" y="2.5" transform="rotate(0)"><tspan id="SvgjsTspan1679" dy="25" x="109.5"><tspan id="SvgjsTspan1680" style="text-decoration:;">Crypto Service</tspan></tspan></text></g></g><g id="SvgjsG1681" transform="translate(392,229)"><path id="SvgjsPath1682" d="M 0 4Q 0 0 4 0L 178 0Q 182 0 182 4L 182 40Q 182 44 178 44L 4 44Q 0 44 0 40Z" stroke="rgba(33,41,48,1)" stroke-width="1" fill-opacity="1" fill="#b2ebf2"></path><g id="SvgjsG1683"><text id="SvgjsText1684" font-family="微软雅黑" text-anchor="middle" font-size="20px" width="162px" fill="#323232" font-weight="400" align="middle" lineHeight="125%" anchor="middle" family="微软雅黑" size="20px" weight="400" font-style="" opacity="1" y="4" transform="rotate(0)"><tspan id="SvgjsTspan1685" dy="25" x="91"><tspan id="SvgjsTspan1686" style="text-decoration:;">Upload File</tspan></tspan></text></g></g><g id="SvgjsG1687" transform="translate(585,229)"><path id="SvgjsPath1688" d="M 0 4Q 0 0 4 0L 211 0Q 215 0 215 4L 215 40Q 215 44 211 44L 4 44Q 0 44 0 40Z" stroke="rgba(33,41,48,1)" stroke-width="1" fill-opacity="1" fill="#b2ebf2"></path><g id="SvgjsG1689"><text id="SvgjsText1690" font-family="微软雅黑" text-anchor="middle" font-size="20px" width="195px" fill="#323232" font-weight="400" align="middle" lineHeight="125%" anchor="middle" family="微软雅黑" size="20px" weight="400" font-style="" opacity="1" y="4" transform="rotate(0)"><tspan id="SvgjsTspan1691" dy="25" x="107.5"><tspan id="SvgjsTspan1692" style="text-decoration:;">Download File</tspan></tspan></text></g></g><g id="SvgjsG1693" transform="translate(639,175)"><path id="SvgjsPath1694" d="M 0 4Q 0 0 4 0L 156 0Q 160 0 160 4L 160 37Q 160 41 156 41L 4 41Q 0 41 0 37Z" stroke="rgba(33,41,48,1)" stroke-width="1" fill-opacity="1" fill="#b2ebf2"></path><g id="SvgjsG1695"><text id="SvgjsText1696" font-family="微软雅黑" text-anchor="middle" font-size="20px" width="140px" fill="#323232" font-weight="400" align="middle" lineHeight="125%" anchor="middle" family="微软雅黑" size="20px" weight="400" font-style="" opacity="1" y="2.5" transform="rotate(0)"><tspan id="SvgjsTspan1697" dy="25" x="80"><tspan id="SvgjsTspan1698" style="text-decoration:;">File State</tspan></tspan></text></g></g><g id="SvgjsG1699" transform="translate(469,175)"><path id="SvgjsPath1700" d="M 0 4Q 0 0 4 0L 157 0Q 161 0 161 4L 161 37Q 161 41 157 41L 4 41Q 0 41 0 37Z" stroke="rgba(33,41,48,1)" stroke-width="1" fill-opacity="1" fill="#b2ebf2"></path><g id="SvgjsG1701"><text id="SvgjsText1702" font-family="微软雅黑" text-anchor="middle" font-size="20px" width="141px" fill="#323232" font-weight="400" align="middle" lineHeight="125%" anchor="middle" family="微软雅黑" size="20px" weight="400" font-style="" opacity="1" y="2.5" transform="rotate(0)"><tspan id="SvgjsTspan1703" dy="25" x="80.5"><tspan id="SvgjsTspan1704" style="text-decoration:;">File List</tspan></tspan></text></g></g><g id="SvgjsG1705" transform="translate(629,122)"><path id="SvgjsPath1706" d="M 0 4Q 0 0 4 0L 166 0Q 170 0 170 4L 170 37Q 170 41 166 41L 4 41Q 0 41 0 37Z" stroke="rgba(33,41,48,1)" stroke-width="1" fill-opacity="1" fill="#b2ebf2"></path><g id="SvgjsG1707"><text id="SvgjsText1708" font-family="微软雅黑" text-anchor="middle" font-size="20px" width="150px" fill="#323232" font-weight="400" align="middle" lineHeight="125%" anchor="middle" family="微软雅黑" size="20px" weight="400" font-style="" opacity="1" y="2.5" transform="rotate(0)"><tspan id="SvgjsTspan1709" dy="25" x="85"><tspan id="SvgjsTspan1710" style="text-decoration:;">Delete File</tspan></tspan></text></g></g><g id="SvgjsG1711" transform="translate(485,123)"><path id="SvgjsPath1712" d="M 0 4Q 0 0 4 0L 125 0Q 129 0 129 4L 129 37Q 129 41 125 41L 4 41Q 0 41 0 37Z" stroke="rgba(33,41,48,1)" stroke-width="1" fill-opacity="1" fill="#b2ebf2"></path><g id="SvgjsG1713"><text id="SvgjsText1714" font-family="微软雅黑" text-anchor="middle" font-size="20px" width="109px" fill="#323232" font-weight="400" align="middle" lineHeight="125%" anchor="middle" family="微软雅黑" size="20px" weight="400" font-style="" opacity="1" y="2.5" transform="rotate(0)"><tspan id="SvgjsTspan1715" dy="25" x="64.5"><tspan id="SvgjsTspan1716" style="text-decoration:;">Token</tspan></tspan></text></g></g><g id="SvgjsG1717" transform="translate(332,339)"><path id="SvgjsPath1718" d="M 0 0L 221 0L 221 31L 0 31Z" stroke="none" fill="none"></path><g id="SvgjsG1719"><text id="SvgjsText1720" font-family="微软雅黑" text-anchor="middle" font-size="20px" width="221px" fill="#323232" font-weight="400" align="middle" lineHeight="125%" anchor="middle" family="微软雅黑" size="20px" weight="400" font-style="" opacity="1" y="-2.5" transform="rotate(0)"><tspan id="SvgjsTspan1721" dy="25" x="110.5"><tspan id="SvgjsTspan1722" style="text-decoration:;">Internal Service</tspan></tspan></text></g></g><g id="SvgjsG1723" transform="translate(401,395)"><path id="SvgjsPath1724" d="M 0 0L 152 0L 152 34L 0 34Z" stroke="rgba(33,41,48,1)" stroke-width="1" fill-opacity="1" fill="#e1bee7"></path><g id="SvgjsG1725"><text id="SvgjsText1726" font-family="微软雅黑" text-anchor="middle" font-size="20px" width="132px" fill="#323232" font-weight="400" align="middle" lineHeight="125%" anchor="middle" family="微软雅黑" size="20px" weight="400" font-style="" opacity="1" y="-1" transform="rotate(0)"><tspan id="SvgjsTspan1727" dy="25" x="76"><tspan id="SvgjsTspan1728" style="text-decoration:;">File cache</tspan></tspan></text></g></g><g id="SvgjsG1729" transform="translate(112,395)"><path id="SvgjsPath1730" d="M 0 0L 274 0L 274 34L 0 34Z" stroke="rgba(33,41,48,1)" stroke-width="1" fill-opacity="1" fill="#e1bee7"></path><g id="SvgjsG1731"><text id="SvgjsText1732" font-family="微软雅黑" text-anchor="middle" font-size="20px" width="254px" fill="#323232" font-weight="400" align="middle" lineHeight="125%" anchor="middle" family="微软雅黑" size="20px" weight="400" font-style="" opacity="1" y="-1" transform="rotate(0)"><tspan id="SvgjsTspan1733" dy="25" x="137"><tspan id="SvgjsTspan1734" style="text-decoration:;">Get data from chain</tspan></tspan></text></g></g><g id="SvgjsG1735" transform="translate(565,395)"><path id="SvgjsPath1736" d="M 0 0L 223 0L 223 34L 0 34Z" stroke="rgba(33,41,48,1)" stroke-width="1" fill-opacity="1" fill="#e1bee7"></path><g id="SvgjsG1737"><text id="SvgjsText1738" font-family="微软雅黑" text-anchor="middle" font-size="20px" width="203px" fill="#323232" font-weight="400" align="middle" lineHeight="125%" anchor="middle" family="微软雅黑" size="20px" weight="400" font-style="" opacity="1" y="-1" transform="rotate(0)"><tspan id="SvgjsTspan1739" dy="25" x="111.5"><tspan id="SvgjsTspan1740" style="text-decoration:;">Send tx to chain</tspan></tspan></text></g></g><g id="SvgjsG1741" transform="translate(475,441)"><path id="SvgjsPath1742" d="M 0 0L 313 0L 313 31L 0 31Z" stroke="rgba(33,41,48,1)" stroke-width="1" fill-opacity="1" fill="#e1bee7"></path><g id="SvgjsG1743"><text id="SvgjsText1744" font-family="微软雅黑" text-anchor="middle" font-size="20px" width="293px" fill="#323232" font-weight="400" align="middle" lineHeight="125%" anchor="middle" family="微软雅黑" size="20px" weight="400" font-style="" opacity="1" y="-2.5" transform="rotate(0)"><tspan id="SvgjsTspan1745" dy="25" x="156.5"><tspan id="SvgjsTspan1746" style="text-decoration:;">Upload file to scheduler</tspan></tspan></text></g></g><g id="SvgjsG1747" transform="translate(112,441)"><path id="SvgjsPath1748" d="M 0 0L 338 0L 338 31L 0 31Z" stroke="rgba(33,41,48,1)" stroke-width="1" fill-opacity="1" fill="#e1bee7"></path><g id="SvgjsG1749"><text id="SvgjsText1750" font-family="微软雅黑" text-anchor="middle" font-size="20px" width="318px" fill="#323232" font-weight="400" align="middle" lineHeight="125%" anchor="middle" family="微软雅黑" size="20px" weight="400" font-style="" opacity="1" y="-2.5" transform="rotate(0)"><tspan id="SvgjsTspan1751" dy="25" x="169"><tspan id="SvgjsTspan1752" style="text-decoration:;">Download file from miner</tspan></tspan></text></g></g><g id="SvgjsG1753" transform="translate(112,484)"><path id="SvgjsPath1754" d="M 0 0L 295 0L 295 34L 0 34Z" stroke="rgba(33,41,48,1)" stroke-width="1" fill-opacity="1" fill="#e1bee7"></path><g id="SvgjsG1755"><text id="SvgjsText1756" font-family="微软雅黑" text-anchor="middle" font-size="20px" width="275px" fill="#323232" font-weight="400" align="middle" lineHeight="125%" anchor="middle" family="微软雅黑" size="20px" weight="400" font-style="" opacity="1" y="-1" transform="rotate(0)"><tspan id="SvgjsTspan1757" dy="25" x="147.5"><tspan id="SvgjsTspan1758" style="text-decoration:;">Token grant and verify</tspan></tspan></text></g></g><g id="SvgjsG1759" transform="translate(454,484)"><path id="SvgjsPath1760" d="M 0 0L 198 0L 198 34L 0 34Z" stroke="rgba(33,41,48,1)" stroke-width="1" fill-opacity="1" fill="#e1bee7"></path><g id="SvgjsG1761"><text id="SvgjsText1762" font-family="微软雅黑" text-anchor="middle" font-size="20px" width="178px" fill="#323232" font-weight="400" align="middle" lineHeight="125%" anchor="middle" family="微软雅黑" size="20px" weight="400" font-style="" opacity="1" y="-1" transform="rotate(0)"><tspan id="SvgjsTspan1763" dy="25" x="99"><tspan id="SvgjsTspan1764" style="text-decoration:;">Data crypto</tspan></tspan></text></g></g><g id="SvgjsG1765" transform="translate(668,484)"><path id="SvgjsPath1766" d="M 0 0L 120 0L 120 34L 0 34Z" stroke="rgba(33,41,48,1)" stroke-width="1" fill-opacity="1" fill="#e1bee7"></path><g id="SvgjsG1767"><text id="SvgjsText1768" font-family="微软雅黑" text-anchor="middle" font-size="20px" width="100px" fill="#323232" font-weight="400" align="middle" lineHeight="125%" anchor="middle" family="微软雅黑" size="20px" weight="400" font-style="" opacity="1" y="-1" transform="rotate(0)"><tspan id="SvgjsTspan1769" dy="25" x="60"><tspan id="SvgjsTspan1770" style="text-decoration:;">Logger</tspan></tspan></text></g></g><g id="SvgjsG1771" transform="translate(288,79)"><path id="SvgjsPath1772" d="M 0 0L 311 0L 311 44L 0 44Z" stroke="none" fill="none"></path><g id="SvgjsG1773"><text id="SvgjsText1774" font-family="微软雅黑" text-anchor="middle" font-size="20px" width="311px" fill="#323232" font-weight="400" align="middle" lineHeight="125%" anchor="middle" family="微软雅黑" size="20px" weight="400" font-style="" opacity="1" y="4" transform="rotate(0)"><tspan id="SvgjsTspan1775" dy="25" x="155.5"><tspan id="SvgjsTspan1776" style="text-decoration:;">Interaction </tspan></tspan></text></g></g><g id="SvgjsG1777" transform="translate(344,539)"><path id="SvgjsPath1778" d="M 0 0L 254 0L 254 34L 0 34Z" stroke="none" fill="none"></path><g id="SvgjsG1779"><text id="SvgjsText1780" font-family="微软雅黑" text-anchor="middle" font-size="20px" width="254px" fill="#323232" font-weight="400" align="middle" lineHeight="125%" anchor="middle" family="微软雅黑" size="20px" weight="400" font-style="" opacity="1" y="-1" transform="rotate(0)"><tspan id="SvgjsTspan1781" dy="25" x="127"><tspan id="SvgjsTspan1782" style="text-decoration:;">Network Connection</tspan></tspan></text></g></g><g id="SvgjsG1783" transform="translate(158,25)"><path id="SvgjsPath1784" d="M 0 0L 569 0L 569 68L 0 68Z" stroke="none" fill="none"></path><g id="SvgjsG1785"><text id="SvgjsText1786" font-family="微软雅黑" text-anchor="middle" font-size="20px" width="569px" fill="#323232" font-weight="700" align="middle" lineHeight="125%" anchor="middle" family="微软雅黑" size="20px" weight="700" font-style="" opacity="1" y="16" transform="rotate(0)"><tspan id="SvgjsTspan1787" dy="25" x="284.5"><tspan id="SvgjsTspan1788" style="text-decoration:;">OSS Application Layer Service Architecture</tspan></tspan></text></g></g><g id="SvgjsG1789" transform="translate(401,484)"><path id="SvgjsPath1790" d="M 0 0L 49 0L 49 34L 0 34Z" stroke="none" fill="none"></path><g id="SvgjsG1791"><text id="SvgjsText1792" font-family="微软雅黑" text-anchor="middle" font-size="20px" width="49px" fill="#323232" font-weight="400" align="middle" lineHeight="125%" anchor="middle" family="微软雅黑" size="20px" weight="400" font-style="" opacity="1" y="-1" transform="rotate(0)"><tspan id="SvgjsTspan1793" dy="25" x="24.5"><tspan id="SvgjsTspan1794" style="text-decoration:;">...</tspan></tspan></text></g></g><g id="SvgjsG1795" transform="translate(332,234)"><path id="SvgjsPath1796" d="M 0 0L 49 0L 49 34L 0 34Z" stroke="none" fill="none"></path><g id="SvgjsG1797"><text id="SvgjsText1798" font-family="微软雅黑" text-anchor="middle" font-size="20px" width="49px" fill="#323232" font-weight="400" align="middle" lineHeight="125%" anchor="middle" family="微软雅黑" size="20px" weight="400" font-style="" opacity="1" y="-1" transform="rotate(0)"><tspan id="SvgjsTspan1799" dy="25" x="24.5"><tspan id="SvgjsTspan1800" style="text-decoration:;">...</tspan></tspan></text></g></g></svg>