<?xml version="1.0" encoding="UTF-8" standalone="no"?><svg xmlns="http://www.w3.org/2000/svg" xmlns:xlink="http://www.w3.org/1999/xlink" contentStyleType="text/css" height="527px" preserveAspectRatio="none" style="width:532px;height:527px;background:#FFFFFF;" version="1.1" viewBox="0 0 532 527" width="532px" zoomAndPan="magnify"><defs/><g><rect fill="none" height="154.9297" style="stroke:#000000;stroke-width:1.5;" width="392" x="104" y="320.7578"/><line style="stroke:#181818;stroke-width:0.5;stroke-dasharray:5.0,5.0;" x1="171" x2="171" y1="36.2969" y2="492.6875"/><rect fill="#E2E2F0" height="30.2969" rx="2.5" ry="2.5" style="stroke:#181818;stroke-width:0.5;" width="114" x="114" y="5"/><text fill="#000000" font-family="sans-serif" font-size="14" lengthAdjust="spacing" textLength="100" x="121" y="24.9951">Chain Network</text><rect fill="#E2E2F0" height="30.2969" rx="2.5" ry="2.5" style="stroke:#181818;stroke-width:0.5;" width="114" x="114" y="491.6875"/><text fill="#000000" font-family="sans-serif" font-size="14" lengthAdjust="spacing" textLength="100" x="121" y="511.6826">Chain Network</text><line style="stroke:#181818;stroke-width:1.0;" x1="171" x2="213" y1="67.4297" y2="67.4297"/><line style="stroke:#181818;stroke-width:1.0;" x1="213" x2="213" y1="67.4297" y2="80.4297"/><line style="stroke:#181818;stroke-width:1.0;" x1="172" x2="213" y1="80.4297" y2="80.4297"/><polygon fill="#181818" points="182,76.4297,172,80.4297,182,84.4297,178,80.4297" style="stroke:#181818;stroke-width:1.0;"/><text fill="#000000" font-family="sans-serif" font-size="13" lengthAdjust="spacing" textLength="184" x="178" y="62.3638">ensure no pending challenge</text><line style="stroke:#181818;stroke-width:1.0;" x1="171" x2="213" y1="109.5625" y2="109.5625"/><line style="stroke:#181818;stroke-width:1.0;" x1="213" x2="213" y1="109.5625" y2="122.5625"/><line style="stroke:#181818;stroke-width:1.0;" x1="172" x2="213" y1="122.5625" y2="122.5625"/><polygon fill="#181818" points="182,118.5625,172,122.5625,182,126.5625,178,122.5625" style="stroke:#181818;stroke-width:1.0;"/><text fill="#000000" font-family="sans-serif" font-size="13" lengthAdjust="spacing" textLength="347" x="178" y="104.4966">claim challenge, media kind: IdleFrag or CustomerFrag</text><line style="stroke:#181818;stroke-width:1.0;" x1="171" x2="213" y1="151.6953" y2="151.6953"/><line style="stroke:#181818;stroke-width:1.0;" x1="213" x2="213" y1="151.6953" y2="164.6953"/><line style="stroke:#181818;stroke-width:1.0;" x1="172" x2="213" y1="164.6953" y2="164.6953"/><polygon fill="#181818" points="182,160.6953,172,164.6953,182,168.6953,178,164.6953" style="stroke:#181818;stroke-width:1.0;"/><text fill="#000000" font-family="sans-serif" font-size="13" lengthAdjust="spacing" textLength="334" x="178" y="146.6294">Select a certain proportion of challengers at random</text><path d="M5,177.6953 L5,308.6953 L338,308.6953 L338,187.6953 L328,177.6953 L5,177.6953 " fill="#FEFFDD" style="stroke:#181818;stroke-width:0.5;"/><path d="M328,177.6953 L328,187.6953 L338,187.6953 L328,177.6953 " fill="#FEFFDD" style="stroke:#181818;stroke-width:0.5;"/><text fill="#000000" font-family="monospace" font-size="13" lengthAdjust="spacing" textLength="144" x="11" y="194.7622">challengeClaim = {</text><text fill="#000000" font-family="monospace" font-size="13" lengthAdjust="spacing" textLength="104" x="43" y="209.895">challId: int,</text><text fill="#000000" font-family="monospace" font-size="13" lengthAdjust="spacing" textLength="176" x="43" y="225.0278">baseline: BlockNumber,</text><text fill="#000000" font-family="monospace" font-size="13" lengthAdjust="spacing" textLength="200" x="43" y="240.1606">maxDeadline: BlockNumber,</text><text fill="#000000" font-family="monospace" font-size="13" lengthAdjust="spacing" textLength="280" x="43" y="255.2935">mediaKind: IdleFrag || CustomerFrag</text><text fill="#000000" font-family="monospace" font-size="13" lengthAdjust="spacing" textLength="192" x="43" y="270.4263">challengers: AccountId[]</text><text fill="#000000" font-family="monospace" font-size="13" lengthAdjust="spacing" textLength="176" x="43" y="285.5591">factors: {(i,v), ...},</text><text fill="#000000" font-family="monospace" font-size="13" lengthAdjust="spacing" textLength="8" x="11" y="300.6919">}</text><path d="M104,320.7578 L181,320.7578 L181,327.8906 L171,337.8906 L104,337.8906 L104,320.7578 " fill="#EEEEEE" style="stroke:#000000;stroke-width:1.5;"/><rect fill="none" height="154.9297" style="stroke:#000000;stroke-width:1.5;" width="392" x="104" y="320.7578"/><text fill="#000000" font-family="sans-serif" font-size="13" font-weight="bold" lengthAdjust="spacing" textLength="32" x="119" y="333.8247">loop</text><text fill="#000000" font-family="sans-serif" font-size="11" font-weight="bold" lengthAdjust="spacing" textLength="113" x="196" y="332.9683">[each challenger]</text><line style="stroke:#181818;stroke-width:1.0;" x1="171" x2="213" y1="359.0234" y2="359.0234"/><line style="stroke:#181818;stroke-width:1.0;" x1="213" x2="213" y1="359.0234" y2="372.0234"/><line style="stroke:#181818;stroke-width:1.0;" x1="172" x2="213" y1="372.0234" y2="372.0234"/><polygon fill="#181818" points="182,368.0234,172,372.0234,182,376.0234,178,372.0234" style="stroke:#181818;stroke-width:1.0;"/><text fill="#000000" font-family="sans-serif" font-size="13" lengthAdjust="spacing" textLength="224" x="178" y="353.9575">assign challenge task to challenger</text><line style="stroke:#181818;stroke-width:1.0;" x1="171" x2="213" y1="427.9219" y2="427.9219"/><line style="stroke:#181818;stroke-width:1.0;" x1="213" x2="213" y1="427.9219" y2="440.9219"/><line style="stroke:#181818;stroke-width:1.0;" x1="172" x2="213" y1="440.9219" y2="440.9219"/><polygon fill="#181818" points="182,436.9219,172,440.9219,182,444.9219,178,440.9219" style="stroke:#181818;stroke-width:1.0;"/><text fill="#000000" font-family="sans-serif" font-size="13" lengthAdjust="spacing" textLength="102" x="178" y="422.856">ensure deadline</text><path d="M292,385.0234 L292,470.0234 L481,470.0234 L481,395.0234 L471,385.0234 L292,385.0234 " fill="#FEFFDD" style="stroke:#181818;stroke-width:0.5;"/><path d="M471,385.0234 L471,395.0234 L481,395.0234 L471,385.0234 " fill="#FEFFDD" style="stroke:#181818;stroke-width:0.5;"/><text fill="#000000" font-family="sans-serif" font-size="13" lengthAdjust="spacing" textLength="117" x="298" y="402.0903">challengeTask = {</text><text fill="#000000" font-family="sans-serif" font-size="13" lengthAdjust="spacing" textLength="97" x="314" y="417.2231">challTaskId: int,</text><text fill="#000000" font-family="sans-serif" font-size="13" lengthAdjust="spacing" textLength="68" x="314" y="432.356">challId: int,</text><text fill="#000000" font-family="sans-serif" font-size="13" lengthAdjust="spacing" textLength="152" x="314" y="447.4888">deadline: BlockNumber,</text><text fill="#000000" font-family="sans-serif" font-size="13" lengthAdjust="spacing" textLength="8" x="298" y="462.6216">}</text></g></svg>