<?xml version="1.0" encoding="UTF-8" standalone="no"?><svg xmlns="http://www.w3.org/2000/svg" xmlns:xlink="http://www.w3.org/1999/xlink" contentStyleType="text/css" height="949px" preserveAspectRatio="none" style="width:527px;height:949px;background:#FFFFFF;" version="1.1" viewBox="0 0 527 949" width="527px" zoomAndPan="magnify"><defs/><g><rect fill="#FFFFFF" height="859.0469" style="stroke:#181818;stroke-width:1.0;" width="10" x="106.5" y="46.2969"/><rect fill="none" height="404.3906" style="stroke:#000000;stroke-width:1.5;" width="309.5" x="211" y="492.9531"/><line style="stroke:#181818;stroke-width:0.5;stroke-dasharray:5.0,5.0;" x1="111" x2="111" y1="36.2969" y2="914.3438"/><line style="stroke:#181818;stroke-width:0.5;stroke-dasharray:5.0,5.0;" x1="335.5" x2="335.5" y1="36.2969" y2="914.3438"/><rect fill="#E2E2F0" height="30.2969" rx="2.5" ry="2.5" style="stroke:#181818;stroke-width:0.5;" width="109" x="57" y="5"/><text fill="#000000" font-family="sans-serif" font-size="14" lengthAdjust="spacing" textLength="95" x="64" y="24.9951">Storage Node</text><rect fill="#E2E2F0" height="30.2969" rx="2.5" ry="2.5" style="stroke:#181818;stroke-width:0.5;" width="109" x="57" y="913.3438"/><text fill="#000000" font-family="sans-serif" font-size="14" lengthAdjust="spacing" textLength="95" x="64" y="933.3389">Storage Node</text><rect fill="#E2E2F0" height="30.2969" rx="2.5" ry="2.5" style="stroke:#181818;stroke-width:0.5;" width="114" x="278.5" y="5"/><text fill="#000000" font-family="sans-serif" font-size="14" lengthAdjust="spacing" textLength="100" x="285.5" y="24.9951">Chain Network</text><rect fill="#E2E2F0" height="30.2969" rx="2.5" ry="2.5" style="stroke:#181818;stroke-width:0.5;" width="114" x="278.5" y="913.3438"/><text fill="#000000" font-family="sans-serif" font-size="14" lengthAdjust="spacing" textLength="100" x="285.5" y="933.3389">Chain Network</text><rect fill="#FFFFFF" height="859.0469" style="stroke:#181818;stroke-width:1.0;" width="10" x="106.5" y="46.2969"/><polygon fill="#181818" points="323.5,63.4297,333.5,67.4297,323.5,71.4297,327.5,67.4297" style="stroke:#181818;stroke-width:1.0;"/><line style="stroke:#181818;stroke-width:1.0;" x1="116.5" x2="329.5" y1="67.4297" y2="67.4297"/><text fill="#000000" font-family="sans-serif" font-size="13" lengthAdjust="spacing" textLength="128" x="123.5" y="62.3638">fetch challenge task</text><polygon fill="#181818" points="127.5,92.5625,117.5,96.5625,127.5,100.5625,123.5,96.5625" style="stroke:#181818;stroke-width:1.0;"/><line style="stroke:#181818;stroke-width:1.0;stroke-dasharray:2.0,2.0;" x1="121.5" x2="334.5" y1="96.5625" y2="96.5625"/><text fill="#000000" font-family="sans-serif" font-size="13" lengthAdjust="spacing" textLength="195" x="133.5" y="91.4966">challengeTask, challengeClaim</text><path d="M164,109.5625 L164,240.5625 L507,240.5625 L507,119.5625 L497,109.5625 L164,109.5625 " fill="#FEFFDD" style="stroke:#181818;stroke-width:0.5;"/><path d="M497,109.5625 L497,119.5625 L507,119.5625 L497,109.5625 " fill="#FEFFDD" style="stroke:#181818;stroke-width:0.5;"/><text fill="#000000" font-family="monospace" font-size="13" lengthAdjust="spacing" textLength="144" x="170" y="126.6294">challengeClaim = {</text><text fill="#000000" font-family="monospace" font-size="13" lengthAdjust="spacing" textLength="104" x="202" y="141.7622">challId: int,</text><text fill="#000000" font-family="monospace" font-size="13" lengthAdjust="spacing" textLength="176" x="202" y="156.895">baseline: BlockNumber,</text><text fill="#000000" font-family="monospace" font-size="13" lengthAdjust="spacing" textLength="200" x="202" y="172.0278">maxDeadline: BlockNumber,</text><text fill="#000000" font-family="monospace" font-size="13" lengthAdjust="spacing" textLength="290" x="202" y="187.1606">mediaKind: IdleFrag ｜｜ CustomerFrag</text><text fill="#000000" font-family="monospace" font-size="13" lengthAdjust="spacing" textLength="192" x="202" y="202.2935">challengers: AccountId[]</text><text fill="#000000" font-family="monospace" font-size="13" lengthAdjust="spacing" textLength="176" x="202" y="217.4263">factors: {(i,v), ...},</text><text fill="#000000" font-family="monospace" font-size="13" lengthAdjust="spacing" textLength="8" x="170" y="232.5591">}</text><polygon fill="#181818" points="323.5,262.7578,333.5,266.7578,323.5,270.7578,327.5,266.7578" style="stroke:#181818;stroke-width:1.0;"/><line style="stroke:#181818;stroke-width:1.0;" x1="116.5" x2="329.5" y1="266.7578" y2="266.7578"/><text fill="#000000" font-family="sans-serif" font-size="13" lengthAdjust="spacing" textLength="146" x="123.5" y="261.6919">fetch state on baseline</text><line style="stroke:#181818;stroke-width:1.0;" x1="116.5" x2="158.5" y1="295.8906" y2="295.8906"/><line style="stroke:#181818;stroke-width:1.0;" x1="158.5" x2="158.5" y1="295.8906" y2="308.8906"/><line style="stroke:#181818;stroke-width:1.0;" x1="117.5" x2="158.5" y1="308.8906" y2="308.8906"/><polygon fill="#181818" points="127.5,304.8906,117.5,308.8906,127.5,312.8906,123.5,308.8906" style="stroke:#181818;stroke-width:1.0;"/><text fill="#000000" font-family="sans-serif" font-size="13" lengthAdjust="spacing" textLength="58" x="123.5" y="290.8247">generate</text><text fill="#000000" font-family="sans-serif" font-size="13" font-weight="bold" lengthAdjust="spacing" textLength="98" x="190.5" y="290.8247">StorageProof</text><path d="M5,321.8906 L5,421.8906 L218,421.8906 L218,331.8906 L208,321.8906 L5,321.8906 " fill="#FEFFDD" style="stroke:#181818;stroke-width:0.5;"/><path d="M208,321.8906 L208,331.8906 L218,331.8906 L208,321.8906 " fill="#FEFFDD" style="stroke:#181818;stroke-width:0.5;"/><text fill="#000000" font-family="monospace" font-size="13" lengthAdjust="spacing" textLength="192" x="11" y="338.9575">storageProofTaskDigest={</text><text fill="#000000" font-family="monospace" font-size="13" lengthAdjust="spacing" textLength="96" x="43" y="354.0903">challTaskId,</text><text fill="#000000" font-family="monospace" font-size="13" lengthAdjust="spacing" textLength="64" x="43" y="369.2231">challId,</text><text fill="#000000" font-family="monospace" font-size="13" lengthAdjust="spacing" textLength="56" x="43" y="384.356">muHash,</text><text fill="#000000" font-family="monospace" font-size="13" lengthAdjust="spacing" textLength="80" x="43" y="399.4888">sigmaHash,</text><text fill="#000000" font-family="monospace" font-size="13" lengthAdjust="spacing" textLength="8" x="11" y="414.6216">}</text><polygon fill="#181818" points="323.5,444.8203,333.5,448.8203,323.5,452.8203,327.5,448.8203" style="stroke:#181818;stroke-width:1.0;"/><line style="stroke:#181818;stroke-width:1.0;" x1="116.5" x2="329.5" y1="448.8203" y2="448.8203"/><text fill="#000000" font-family="sans-serif" font-size="13" lengthAdjust="spacing" textLength="184" x="123.5" y="443.7544">finishStorageProofTask(sptd)</text><polygon fill="#181818" points="127.5,473.9531,117.5,477.9531,127.5,481.9531,123.5,477.9531" style="stroke:#181818;stroke-width:1.0;"/><line style="stroke:#181818;stroke-width:1.0;stroke-dasharray:2.0,2.0;" x1="121.5" x2="334.5" y1="477.9531" y2="477.9531"/><text fill="#000000" font-family="sans-serif" font-size="13" lengthAdjust="spacing" textLength="47" x="133.5" y="472.8872">sptd ok</text><path d="M211,492.9531 L281,492.9531 L281,500.0859 L271,510.0859 L211,510.0859 L211,492.9531 " fill="#EEEEEE" style="stroke:#000000;stroke-width:1.5;"/><rect fill="none" height="404.3906" style="stroke:#000000;stroke-width:1.5;" width="309.5" x="211" y="492.9531"/><text fill="#000000" font-family="sans-serif" font-size="13" font-weight="bold" lengthAdjust="spacing" textLength="25" x="226" y="506.02">par</text><text fill="#000000" font-family="sans-serif" font-size="11" font-weight="bold" lengthAdjust="spacing" textLength="122" x="296" y="505.1636">[deadline reached]</text><line style="stroke:#181818;stroke-width:1.0;" x1="335.5" x2="377.5" y1="531.2188" y2="531.2188"/><line style="stroke:#181818;stroke-width:1.0;" x1="377.5" x2="377.5" y1="531.2188" y2="544.2188"/><line style="stroke:#181818;stroke-width:1.0;" x1="336.5" x2="377.5" y1="544.2188" y2="544.2188"/><polygon fill="#181818" points="346.5,540.2188,336.5,544.2188,346.5,548.2188,342.5,544.2188" style="stroke:#181818;stroke-width:1.0;"/><text fill="#000000" font-family="sans-serif" font-size="13" lengthAdjust="spacing" textLength="166" x="342.5" y="526.1528">figure out violation money</text><line style="stroke:#181818;stroke-width:1.0;" x1="335.5" x2="377.5" y1="573.3516" y2="573.3516"/><line style="stroke:#181818;stroke-width:1.0;" x1="377.5" x2="377.5" y1="573.3516" y2="586.3516"/><line style="stroke:#181818;stroke-width:1.0;" x1="336.5" x2="377.5" y1="586.3516" y2="586.3516"/><polygon fill="#181818" points="346.5,582.3516,336.5,586.3516,346.5,590.3516,342.5,586.3516" style="stroke:#181818;stroke-width:1.0;"/><text fill="#000000" font-family="sans-serif" font-size="13" lengthAdjust="spacing" textLength="16" x="342.5" y="568.2856">go</text><text fill="#000000" font-family="sans-serif" font-size="13" font-style="italic" lengthAdjust="spacing" textLength="115" x="362.5" y="568.2856">punish processing</text><line style="stroke:#000000;stroke-width:1.0;stroke-dasharray:2.0,2.0;" x1="211" x2="520.5" y1="595.3516" y2="595.3516"/><line style="stroke:#181818;stroke-width:1.0;" x1="335.5" x2="377.5" y1="617.4844" y2="617.4844"/><line style="stroke:#181818;stroke-width:1.0;" x1="377.5" x2="377.5" y1="617.4844" y2="630.4844"/><line style="stroke:#181818;stroke-width:1.0;" x1="336.5" x2="377.5" y1="630.4844" y2="630.4844"/><polygon fill="#181818" points="346.5,626.4844,336.5,630.4844,346.5,634.4844,342.5,630.4844" style="stroke:#181818;stroke-width:1.0;"/><text fill="#000000" font-family="sans-serif" font-size="13" lengthAdjust="spacing" textLength="89" x="342.5" y="612.4185">finish the task</text><line style="stroke:#181818;stroke-width:1.0;" x1="335.5" x2="377.5" y1="659.6172" y2="659.6172"/><line style="stroke:#181818;stroke-width:1.0;" x1="377.5" x2="377.5" y1="659.6172" y2="672.6172"/><line style="stroke:#181818;stroke-width:1.0;" x1="336.5" x2="377.5" y1="672.6172" y2="672.6172"/><polygon fill="#181818" points="346.5,668.6172,336.5,672.6172,346.5,676.6172,342.5,672.6172" style="stroke:#181818;stroke-width:1.0;"/><text fill="#000000" font-family="sans-serif" font-size="13" lengthAdjust="spacing" textLength="118" x="342.5" y="654.5513">assign TW to verify</text><path d="M221,685.6172 L221,891.6172 L450,891.6172 L450,695.6172 L440,685.6172 L221,685.6172 " fill="#FEFFDD" style="stroke:#181818;stroke-width:0.5;"/><path d="M440,685.6172 L440,695.6172 L450,695.6172 L440,685.6172 " fill="#FEFFDD" style="stroke:#181818;stroke-width:0.5;"/><text fill="#000000" font-family="monospace" font-size="13" lengthAdjust="spacing" textLength="152" x="227" y="702.6841">ProofVerifyTask = {</text><text fill="#000000" font-family="monospace" font-size="13" lengthAdjust="spacing" textLength="24" x="259" y="717.8169">id,</text><text fill="#000000" font-family="monospace" font-size="13" lengthAdjust="spacing" textLength="96" x="259" y="732.9497">teeWorkerId,</text><text fill="#000000" font-family="monospace" font-size="13" lengthAdjust="spacing" textLength="176" x="259" y="748.0825">deadline: BlockNumber,</text><text fill="#000000" font-family="monospace" font-size="13" lengthAdjust="spacing" textLength="152" x="259" y="763.2153">storageProofInfo: {</text><text fill="#000000" font-family="monospace" font-size="13" lengthAdjust="spacing" textLength="64" x="291" y="778.3481">challId,</text><text fill="#000000" font-family="monospace" font-size="13" lengthAdjust="spacing" textLength="144" x="291" y="793.481">challengeBaseline,</text><text fill="#000000" font-family="monospace" font-size="13" lengthAdjust="spacing" textLength="40" x="291" y="808.6138">swId,</text><text fill="#000000" font-family="monospace" font-size="13" lengthAdjust="spacing" textLength="136" x="291" y="823.7466">swCallbackAddress</text><text fill="#000000" font-family="monospace" font-size="13" lengthAdjust="spacing" textLength="56" x="291" y="838.8794">muHash,</text><text fill="#000000" font-family="monospace" font-size="13" lengthAdjust="spacing" textLength="80" x="291" y="854.0122">sigmaHash,</text><text fill="#000000" font-family="monospace" font-size="13" lengthAdjust="spacing" textLength="8" x="259" y="869.145">}</text><text fill="#000000" font-family="monospace" font-size="13" lengthAdjust="spacing" textLength="8" x="227" y="884.2778">}</text></g></svg>