<?xml version="1.0" encoding="UTF-8" standalone="no"?><svg xmlns="http://www.w3.org/2000/svg" xmlns:xlink="http://www.w3.org/1999/xlink" contentStyleType="text/css" height="1039px" preserveAspectRatio="none" style="width:629px;height:1039px;background:#FFFFFF;" version="1.1" viewBox="0 0 629 1039" width="629px" zoomAndPan="magnify"><defs/><g><rect fill="#FFFFFF" height="280.1953" style="stroke:#181818;stroke-width:1.0;" width="10" x="47" y="46.2969"/><rect fill="#FFFFFF" height="697.9219" style="stroke:#181818;stroke-width:1.0;" width="10" x="320" y="297.3594"/><rect fill="none" height="645.7891" style="stroke:#000000;stroke-width:1.5;" width="363" x="206" y="341.4922"/><rect fill="none" height="486.2578" style="stroke:#000000;stroke-width:1.5;" width="316" x="216" y="494.0234"/><rect fill="none" height="101.3984" style="stroke:#000000;stroke-width:1.5;" width="264" x="258" y="871.8828"/><line style="stroke:#181818;stroke-width:0.5;stroke-dasharray:5.0,5.0;" x1="52" x2="52" y1="36.2969" y2="1004.2813"/><line style="stroke:#181818;stroke-width:0.5;stroke-dasharray:5.0,5.0;" x1="325" x2="325" y1="36.2969" y2="1004.2813"/><line style="stroke:#181818;stroke-width:0.5;stroke-dasharray:5.0,5.0;" x1="568.5" x2="568.5" y1="36.2969" y2="1004.2813"/><rect fill="#E2E2F0" height="30.2969" rx="2.5" ry="2.5" style="stroke:#181818;stroke-width:0.5;" width="94" x="5" y="5"/><text fill="#000000" font-family="sans-serif" font-size="14" lengthAdjust="spacing" textLength="80" x="12" y="24.9951">TEE Worker</text><rect fill="#E2E2F0" height="30.2969" rx="2.5" ry="2.5" style="stroke:#181818;stroke-width:0.5;" width="94" x="5" y="1003.2813"/><text fill="#000000" font-family="sans-serif" font-size="14" lengthAdjust="spacing" textLength="80" x="12" y="1023.2764">TEE Worker</text><rect fill="#E2E2F0" height="30.2969" rx="2.5" ry="2.5" style="stroke:#181818;stroke-width:0.5;" width="114" x="268" y="5"/><text fill="#000000" font-family="sans-serif" font-size="14" lengthAdjust="spacing" textLength="100" x="275" y="24.9951">Chain Network</text><rect fill="#E2E2F0" height="30.2969" rx="2.5" ry="2.5" style="stroke:#181818;stroke-width:0.5;" width="114" x="268" y="1003.2813"/><text fill="#000000" font-family="sans-serif" font-size="14" lengthAdjust="spacing" textLength="100" x="275" y="1023.2764">Chain Network</text><rect fill="#E2E2F0" height="30.2969" rx="2.5" ry="2.5" style="stroke:#181818;stroke-width:0.5;" width="109" x="514.5" y="5"/><text fill="#000000" font-family="sans-serif" font-size="14" lengthAdjust="spacing" textLength="95" x="521.5" y="24.9951">Storage Node</text><rect fill="#E2E2F0" height="30.2969" rx="2.5" ry="2.5" style="stroke:#181818;stroke-width:0.5;" width="109" x="514.5" y="1003.2813"/><text fill="#000000" font-family="sans-serif" font-size="14" lengthAdjust="spacing" textLength="95" x="521.5" y="1023.2764">Storage Node</text><rect fill="#FFFFFF" height="280.1953" style="stroke:#181818;stroke-width:1.0;" width="10" x="47" y="46.2969"/><rect fill="#FFFFFF" height="697.9219" style="stroke:#181818;stroke-width:1.0;" width="10" x="320" y="297.3594"/><polygon fill="#181818" points="313,63.4297,323,67.4297,313,71.4297,317,67.4297" style="stroke:#181818;stroke-width:1.0;"/><line style="stroke:#181818;stroke-width:1.0;" x1="57" x2="319" y1="67.4297" y2="67.4297"/><text fill="#000000" font-family="sans-serif" font-size="13" lengthAdjust="spacing" textLength="101" x="64" y="62.3638">fetch verify task</text><polygon fill="#181818" points="68,92.5625,58,96.5625,68,100.5625,64,96.5625" style="stroke:#181818;stroke-width:1.0;"/><line style="stroke:#181818;stroke-width:1.0;stroke-dasharray:2.0,2.0;" x1="62" x2="324" y1="96.5625" y2="96.5625"/><text fill="#000000" font-family="sans-serif" font-size="13" font-style="italic" lengthAdjust="spacing" textLength="98" x="74" y="91.4966">proofVerifyTask</text><polygon fill="#181818" points="313,121.6953,323,125.6953,313,129.6953,317,125.6953" style="stroke:#181818;stroke-width:1.0;"/><line style="stroke:#181818;stroke-width:1.0;" x1="57" x2="319" y1="125.6953" y2="125.6953"/><text fill="#000000" font-family="sans-serif" font-size="13" lengthAdjust="spacing" textLength="233" x="64" y="120.6294">fetch mark prefix entries on baseline</text><line style="stroke:#181818;stroke-width:1.0;" x1="57" x2="99" y1="169.9609" y2="169.9609"/><line style="stroke:#181818;stroke-width:1.0;" x1="99" x2="99" y1="169.9609" y2="182.9609"/><line style="stroke:#181818;stroke-width:1.0;" x1="58" x2="99" y1="182.9609" y2="182.9609"/><polygon fill="#181818" points="68,178.9609,58,182.9609,68,186.9609,64,182.9609" style="stroke:#181818;stroke-width:1.0;"/><text fill="#000000" font-family="sans-serif" font-size="13" lengthAdjust="spacing" textLength="142" x="64" y="149.7622">figure out proof marks</text><text fill="#000000" font-family="sans-serif" font-size="13" lengthAdjust="spacing" textLength="70" x="64" y="164.895">(that is the</text><text fill="#000000" font-family="sans-serif" font-size="13" font-style="italic" lengthAdjust="spacing" textLength="11" x="138" y="164.895">W</text><text fill="#000000" font-family="sans-serif" font-size="13" lengthAdjust="spacing" textLength="31" x="153" y="164.895">part)</text><polygon fill="#181818" points="557,208.0938,567,212.0938,557,216.0938,561,212.0938" style="stroke:#181818;stroke-width:1.0;"/><line style="stroke:#181818;stroke-width:1.0;" x1="57" x2="563" y1="212.0938" y2="212.0938"/><text fill="#000000" font-family="sans-serif" font-size="13" lengthAdjust="spacing" textLength="104" x="64" y="207.0278">fetch mu, sigma</text><polygon fill="#181818" points="68,222.0938,58,226.0938,68,230.0938,64,226.0938" style="stroke:#181818;stroke-width:1.0;"/><line style="stroke:#181818;stroke-width:1.0;stroke-dasharray:2.0,2.0;" x1="62" x2="568" y1="226.0938" y2="226.0938"/><line style="stroke:#181818;stroke-width:1.0;" x1="57" x2="99" y1="255.2266" y2="255.2266"/><line style="stroke:#181818;stroke-width:1.0;" x1="99" x2="99" y1="255.2266" y2="268.2266"/><line style="stroke:#181818;stroke-width:1.0;" x1="58" x2="99" y1="268.2266" y2="268.2266"/><polygon fill="#181818" points="68,264.2266,58,268.2266,68,272.2266,64,268.2266" style="stroke:#181818;stroke-width:1.0;"/><text fill="#000000" font-family="sans-serif" font-size="13" lengthAdjust="spacing" textLength="249" x="64" y="250.1606">do_verify(swId, mu, sigma, proofMarks)</text><polygon fill="#181818" points="308,293.3594,318,297.3594,308,301.3594,312,297.3594" style="stroke:#181818;stroke-width:1.0;"/><line style="stroke:#181818;stroke-width:1.0;" x1="57" x2="314" y1="297.3594" y2="297.3594"/><text fill="#000000" font-family="sans-serif" font-size="13" lengthAdjust="spacing" textLength="98" x="64" y="292.2935">finishVerifyTask</text><polygon fill="#181818" points="63,322.4922,53,326.4922,63,330.4922,59,326.4922" style="stroke:#181818;stroke-width:1.0;"/><line style="stroke:#181818;stroke-width:1.0;stroke-dasharray:2.0,2.0;" x1="57" x2="319" y1="326.4922" y2="326.4922"/><text fill="#000000" font-family="sans-serif" font-size="13" lengthAdjust="spacing" textLength="31" x="69" y="321.4263">tx ok</text><path d="M206,341.4922 L276,341.4922 L276,348.625 L266,358.625 L206,358.625 L206,341.4922 " fill="#EEEEEE" style="stroke:#000000;stroke-width:1.5;"/><rect fill="none" height="645.7891" style="stroke:#000000;stroke-width:1.5;" width="363" x="206" y="341.4922"/><text fill="#000000" font-family="sans-serif" font-size="13" font-weight="bold" lengthAdjust="spacing" textLength="25" x="221" y="354.5591">par</text><text fill="#000000" font-family="sans-serif" font-size="11" font-weight="bold" lengthAdjust="spacing" textLength="122" x="291" y="353.7026">[deadling reached]</text><line style="stroke:#181818;stroke-width:1.0;" x1="330" x2="372" y1="379.7578" y2="379.7578"/><line style="stroke:#181818;stroke-width:1.0;" x1="372" x2="372" y1="379.7578" y2="392.7578"/><line style="stroke:#181818;stroke-width:1.0;" x1="331" x2="372" y1="392.7578" y2="392.7578"/><polygon fill="#181818" points="341,388.7578,331,392.7578,341,396.7578,337,392.7578" style="stroke:#181818;stroke-width:1.0;"/><text fill="#000000" font-family="sans-serif" font-size="13" lengthAdjust="spacing" textLength="158" x="337" y="374.6919">finish as timeout for task</text><line style="stroke:#181818;stroke-width:1.0;" x1="330" x2="372" y1="421.8906" y2="421.8906"/><line style="stroke:#181818;stroke-width:1.0;" x1="372" x2="372" y1="421.8906" y2="434.8906"/><line style="stroke:#181818;stroke-width:1.0;" x1="331" x2="372" y1="434.8906" y2="434.8906"/><polygon fill="#181818" points="341,430.8906,331,434.8906,341,438.8906,337,434.8906" style="stroke:#181818;stroke-width:1.0;"/><text fill="#000000" font-family="sans-serif" font-size="13" lengthAdjust="spacing" textLength="220" x="337" y="416.8247">reassign new TW for the verify task</text><line style="stroke:#000000;stroke-width:1.0;stroke-dasharray:2.0,2.0;" x1="206" x2="569" y1="443.8906" y2="443.8906"/><line style="stroke:#181818;stroke-width:1.0;" x1="330" x2="372" y1="466.0234" y2="466.0234"/><line style="stroke:#181818;stroke-width:1.0;" x1="372" x2="372" y1="466.0234" y2="479.0234"/><line style="stroke:#181818;stroke-width:1.0;" x1="331" x2="372" y1="479.0234" y2="479.0234"/><polygon fill="#181818" points="341,475.0234,331,479.0234,341,483.0234,337,479.0234" style="stroke:#181818;stroke-width:1.0;"/><text fill="#000000" font-family="sans-serif" font-size="13" lengthAdjust="spacing" textLength="136" x="337" y="460.9575">increase TW workload</text><path d="M216,494.0234 L280,494.0234 L280,501.1563 L270,511.1563 L216,511.1563 L216,494.0234 " fill="#EEEEEE" style="stroke:#000000;stroke-width:1.5;"/><rect fill="none" height="486.2578" style="stroke:#000000;stroke-width:1.5;" width="316" x="216" y="494.0234"/><text fill="#000000" font-family="sans-serif" font-size="13" font-weight="bold" lengthAdjust="spacing" textLength="19" x="231" y="507.0903">alt</text><text fill="#000000" font-family="sans-serif" font-size="11" font-weight="bold" lengthAdjust="spacing" textLength="114" x="295" y="506.2339">[if verify success]</text><line style="stroke:#181818;stroke-width:1.0;" x1="330" x2="372" y1="532.2891" y2="532.2891"/><line style="stroke:#181818;stroke-width:1.0;" x1="372" x2="372" y1="532.2891" y2="545.2891"/><line style="stroke:#181818;stroke-width:1.0;" x1="331" x2="372" y1="545.2891" y2="545.2891"/><polygon fill="#181818" points="341,541.2891,331,545.2891,341,549.2891,337,545.2891" style="stroke:#181818;stroke-width:1.0;"/><text fill="#000000" font-family="sans-serif" font-size="13" lengthAdjust="spacing" textLength="109" x="337" y="527.2231">finish as verify ok</text><line style="stroke:#181818;stroke-width:1.0;" x1="330" x2="372" y1="574.4219" y2="574.4219"/><line style="stroke:#181818;stroke-width:1.0;" x1="372" x2="372" y1="574.4219" y2="587.4219"/><line style="stroke:#181818;stroke-width:1.0;" x1="331" x2="372" y1="587.4219" y2="587.4219"/><polygon fill="#181818" points="341,583.4219,331,587.4219,341,591.4219,337,587.4219" style="stroke:#181818;stroke-width:1.0;"/><text fill="#000000" font-family="sans-serif" font-size="13" lengthAdjust="spacing" textLength="143" x="337" y="569.356">generate reward order</text><path d="M226,600.4219 L226,731.4219 L423,731.4219 L423,610.4219 L413,600.4219 L226,600.4219 " fill="#FEFFDD" style="stroke:#181818;stroke-width:0.5;"/><path d="M413,600.4219 L413,610.4219 L423,610.4219 L413,600.4219 " fill="#FEFFDD" style="stroke:#181818;stroke-width:0.5;"/><text fill="#000000" font-family="monospace" font-size="13" lengthAdjust="spacing" textLength="176" x="232" y="617.4888">StorageRewardOrder = {</text><text fill="#000000" font-family="monospace" font-size="13" lengthAdjust="spacing" textLength="64" x="264" y="632.6216">challId,</text><text fill="#000000" font-family="monospace" font-size="13" lengthAdjust="spacing" textLength="40" x="264" y="647.7544">swId,</text><text fill="#000000" font-family="monospace" font-size="13" lengthAdjust="spacing" textLength="80" x="264" y="662.8872">mediaKind,</text><text fill="#000000" font-family="monospace" font-size="13" lengthAdjust="spacing" textLength="88" x="264" y="678.02">totalBonus,</text><text fill="#000000" font-family="monospace" font-size="13" lengthAdjust="spacing" textLength="112" x="264" y="693.1528">verifiedPower,</text><text fill="#000000" font-family="monospace" font-size="13" lengthAdjust="spacing" textLength="144" x="264" y="708.2856">totalNetworkPower,</text><text fill="#000000" font-family="monospace" font-size="13" lengthAdjust="spacing" textLength="8" x="232" y="723.4185">}</text><line style="stroke:#181818;stroke-width:1.0;" x1="330" x2="372" y1="757.6172" y2="757.6172"/><line style="stroke:#181818;stroke-width:1.0;" x1="372" x2="372" y1="757.6172" y2="770.6172"/><line style="stroke:#181818;stroke-width:1.0;" x1="331" x2="372" y1="770.6172" y2="770.6172"/><polygon fill="#181818" points="341,766.6172,331,770.6172,341,774.6172,337,770.6172" style="stroke:#181818;stroke-width:1.0;"/><text fill="#000000" font-family="sans-serif" font-size="13" lengthAdjust="spacing" textLength="149" x="337" y="752.5513">reset verify failed count</text><line style="stroke:#000000;stroke-width:1.0;stroke-dasharray:2.0,2.0;" x1="216" x2="532" y1="779.6172" y2="779.6172"/><line style="stroke:#181818;stroke-width:1.0;" x1="330" x2="372" y1="801.75" y2="801.75"/><line style="stroke:#181818;stroke-width:1.0;" x1="372" x2="372" y1="801.75" y2="814.75"/><line style="stroke:#181818;stroke-width:1.0;" x1="331" x2="372" y1="814.75" y2="814.75"/><polygon fill="#181818" points="341,810.75,331,814.75,341,818.75,337,814.75" style="stroke:#181818;stroke-width:1.0;"/><text fill="#000000" font-family="sans-serif" font-size="13" lengthAdjust="spacing" textLength="120" x="337" y="796.6841">finish as verify faild</text><line style="stroke:#181818;stroke-width:1.0;" x1="330" x2="372" y1="843.8828" y2="843.8828"/><line style="stroke:#181818;stroke-width:1.0;" x1="372" x2="372" y1="843.8828" y2="856.8828"/><line style="stroke:#181818;stroke-width:1.0;" x1="331" x2="372" y1="856.8828" y2="856.8828"/><polygon fill="#181818" points="341,852.8828,331,856.8828,341,860.8828,337,856.8828" style="stroke:#181818;stroke-width:1.0;"/><text fill="#000000" font-family="sans-serif" font-size="13" lengthAdjust="spacing" textLength="170" x="337" y="838.8169">increase verify failed count</text><path d="M258,871.8828 L328,871.8828 L328,879.0156 L318,889.0156 L258,889.0156 L258,871.8828 " fill="#EEEEEE" style="stroke:#000000;stroke-width:1.5;"/><rect fill="none" height="101.3984" style="stroke:#000000;stroke-width:1.5;" width="264" x="258" y="871.8828"/><text fill="#000000" font-family="sans-serif" font-size="13" font-weight="bold" lengthAdjust="spacing" textLength="25" x="273" y="884.9497">opt</text><text fill="#000000" font-family="sans-serif" font-size="11" font-weight="bold" lengthAdjust="spacing" textLength="174" x="343" y="884.0933">[if verify failed count &gt;= 2]</text><line style="stroke:#181818;stroke-width:1.0;" x1="330" x2="372" y1="910.1484" y2="910.1484"/><line style="stroke:#181818;stroke-width:1.0;" x1="372" x2="372" y1="910.1484" y2="923.1484"/><line style="stroke:#181818;stroke-width:1.0;" x1="331" x2="372" y1="923.1484" y2="923.1484"/><polygon fill="#181818" points="341,919.1484,331,923.1484,341,927.1484,337,923.1484" style="stroke:#181818;stroke-width:1.0;"/><text fill="#000000" font-family="sans-serif" font-size="13" lengthAdjust="spacing" textLength="149" x="337" y="905.0825">reset verify failed count</text><line style="stroke:#181818;stroke-width:1.0;" x1="330" x2="372" y1="952.2813" y2="952.2813"/><line style="stroke:#181818;stroke-width:1.0;" x1="372" x2="372" y1="952.2813" y2="965.2813"/><line style="stroke:#181818;stroke-width:1.0;" x1="331" x2="372" y1="965.2813" y2="965.2813"/><polygon fill="#181818" points="341,961.2813,331,965.2813,341,969.2813,337,965.2813" style="stroke:#181818;stroke-width:1.0;"/><text fill="#000000" font-family="sans-serif" font-size="13" lengthAdjust="spacing" textLength="16" x="337" y="947.2153">go</text><text fill="#000000" font-family="sans-serif" font-size="13" font-style="italic" lengthAdjust="spacing" textLength="115" x="357" y="947.2153">punish processing</text></g></svg>