<?xml version="1.0" encoding="UTF-8" standalone="no"?>
<!-- 由 Microsoft Visio, SVG Export 生成 可信持续证明.svg 页-1 -->

<svg
   width="9.58313in"
   height="8.98999in"
   viewBox="0 0 689.985 647.279"
   xml:space="preserve"
   color-interpolation-filters="sRGB"
   class="st28"
   version="1.1"
   id="svg357"
   sodipodi:docname="可信持续证明_en.svg"
   inkscape:version="1.2.2 (732a01da63, 2022-12-09)"
   xmlns:inkscape="http://www.inkscape.org/namespaces/inkscape"
   xmlns:sodipodi="http://sodipodi.sourceforge.net/DTD/sodipodi-0.dtd"
   xmlns:xlink="http://www.w3.org/1999/xlink"
   xmlns="http://www.w3.org/2000/svg"
   xmlns:svg="http://www.w3.org/2000/svg"
   xmlns:v="http://schemas.microsoft.com/visio/2003/SVGExtensions/"><sodipodi:namedview
   id="namedview359"
   pagecolor="#ffffff"
   bordercolor="#000000"
   borderopacity="0.25"
   inkscape:showpageshadow="2"
   inkscape:pageopacity="0.0"
   inkscape:pagecheckerboard="0"
   inkscape:deskcolor="#d1d1d1"
   inkscape:document-units="in"
   showgrid="false"
   inkscape:zoom="0.94781341"
   inkscape:cx="460.00615"
   inkscape:cy="439.43248"
   inkscape:window-width="1920"
   inkscape:window-height="1001"
   inkscape:window-x="-9"
   inkscape:window-y="-9"
   inkscape:window-maximized="1"
   inkscape:current-layer="g355" />
	<v:documentProperties
   v:langID="2052"
   v:metric="true"
   v:viewMarkup="false" />

	<style
   type="text/css"
   id="style2">
	<![CDATA[
		.st1 {fill:#deebf6;stroke:#2e75b5;stroke-dasharray:1.75,1.25,0.01,1.25;stroke-width:0.25}
		.st2 {visibility:visible}
		.st3 {fill:#000000;fill-opacity:0.4;filter:url(#filter_2.6666667461395);stroke:none;stroke-linecap:butt}
		.st4 {fill:#0070c0;stroke:none;stroke-linecap:butt;stroke-width:6.375}
		.st5 {fill:none;stroke:none;stroke-width:0.25}
		.st6 {fill:#000000;font-family:Calibri;font-size:1.16666em}
		.st7 {fill:#538135;stroke:none;stroke-linecap:butt;stroke-width:0.75}
		.st8 {stroke:#538135;stroke-linecap:round;stroke-linejoin:round;stroke-width:3}
		.st9 {marker-end:url(#mrkr5-51);stroke:#4672c4;stroke-dasharray:10.5,7.5,0.01,7.5;stroke-width:1.5}
		.st10 {fill:#4672c4;fill-opacity:1;stroke:#4672c4;stroke-opacity:1;stroke-width:0.37313432835821}
		.st11 {fill:#7030a0;stroke:none;stroke-linecap:butt;stroke-width:6.375}
		.st12 {stroke:#7030a0;stroke-linecap:round;stroke-linejoin:round;stroke-width:3}
		.st13 {fill:#1e4e79;font-family:Calibri;font-size:1.5em;font-weight:bold}
		.st14 {font-size:1em}
		.st15 {fill:#000000;font-family:Calibri;font-size:1.00001em;font-weight:bold}
		.st16 {font-family:微软雅黑;font-size:1em}
		.st17 {marker-start:url(#mrkr5-83);stroke:#538135;stroke-dasharray:10.5,7.5,0,7.5;stroke-linecap:round;stroke-linejoin:round;stroke-width:1.5}
		.st18 {fill:#538135;fill-opacity:1;stroke:#538135;stroke-opacity:1;stroke-width:0.37313432835821}
		.st19 {fill:#000000;font-family:微软雅黑;font-size:1.00001em;font-weight:bold}
		.st20 {fill:#000000;font-family:宋体;font-size:1.16666em;font-weight:bold}
		.st21 {font-family:Calibri;font-size:0.857157em}
		.st22 {marker-start:url(#mrkr5-124);stroke:#4672c4;stroke-dasharray:10.5,7.5,0,7.5;stroke-linecap:round;stroke-linejoin:round;stroke-width:1.5}
		.st23 {marker-start:url(#mrkr5-134);stroke:#7030a0;stroke-dasharray:10.5,7.5,0,7.5;stroke-linecap:round;stroke-linejoin:round;stroke-width:1.5}
		.st24 {fill:#7030a0;fill-opacity:1;stroke:#7030a0;stroke-opacity:1;stroke-width:0.37313432835821}
		.st25 {fill:#000000;font-family:宋体;font-size:1.00001em;font-weight:bold}
		.st26 {font-family:Calibri;font-size:1em}
		.st27 {stroke:#4672c4;stroke-linecap:round;stroke-linejoin:round;stroke-width:3}
		.st28 {fill:none;fill-rule:evenodd;font-size:12px;overflow:visible;stroke-linecap:square;stroke-miterlimit:3}
	]]>
	</style>

	<defs
   id="Markers">
		<g
   id="lend5">
			<path
   d="M 2 1 L 0 0 L 1.98117 -0.993387 C 1.67173 -0.364515 1.67301 0.372641 1.98465 1.00043 "
   style="stroke:none"
   id="path4" />
		</g>
		<marker
   id="mrkr5-51"
   class="st10"
   v:arrowType="5"
   v:arrowSize="2"
   v:setback="4.45"
   refX="-4.45"
   orient="auto"
   markerUnits="strokeWidth"
   overflow="visible">
			<use
   xlink:href="#lend5"
   transform="scale(-2.68,-2.68) "
   id="use7" />
		</marker>
		<marker
   id="mrkr5-83"
   class="st18"
   v:arrowType="5"
   v:arrowSize="2"
   v:setback="4.45"
   refX="4.45"
   orient="auto"
   markerUnits="strokeWidth"
   overflow="visible">
			<use
   xlink:href="#lend5"
   transform="scale(2.68) "
   id="use10" />
		</marker>
		<marker
   id="mrkr5-124"
   class="st10"
   v:arrowType="5"
   v:arrowSize="2"
   v:setback="4.45"
   refX="4.45"
   orient="auto"
   markerUnits="strokeWidth"
   overflow="visible">
			<use
   xlink:href="#lend5"
   transform="scale(2.68) "
   id="use13" />
		</marker>
		<marker
   id="mrkr5-134"
   class="st24"
   v:arrowType="5"
   v:arrowSize="2"
   v:setback="4.45"
   refX="4.45"
   orient="auto"
   markerUnits="strokeWidth"
   overflow="visible">
			<use
   xlink:href="#lend5"
   transform="scale(2.68) "
   id="use16" />
		</marker>
	</defs>
	<defs
   id="Filters">
		<filter
   id="filter_2.6666667461395"
   x="-0.2390736"
   y="-0.57747038"
   width="1.4781472"
   height="2.1549408">
			<feGaussianBlur
   stdDeviation="2.6666667461395"
   id="feGaussianBlur20" />
		</filter>
	</defs>
	<g
   v:mID="0"
   v:index="1"
   v:groupContext="foregroundPage"
   id="g355">
		<title
   id="title24">页-1</title>
		<v:pageProperties
   v:drawingScale="0.0393701"
   v:pageScale="0.0393701"
   v:drawingUnits="24"
   v:shadowOffsetX="9"
   v:shadowOffsetY="-9" />
		<g
   id="shape3-1"
   v:mID="3"
   v:groupContext="shape"
   transform="translate(9.83918,-454.42)">
			<title
   id="title26">矩形.22</title>
			<v:userDefs>
				<v:ud
   v:nameU="visVersion"
   v:val="VT0(15):26" />
			</v:userDefs>
			<rect
   x="0"
   y="570.177"
   width="130.394"
   height="77.1024"
   rx="8.50394"
   ry="8.50394"
   class="st1"
   id="rect28" />
		</g>
		<g
   id="group12-3"
   transform="translate(23.7477,-584.211)"
   v:mID="12"
   v:groupContext="group">
			<title
   id="title31">工作表.12</title>
			<g
   id="group13-4"
   v:mID="13"
   v:groupContext="group">
				<title
   id="title33">Icons</title>
				<g
   id="shape14-5"
   v:mID="14"
   v:groupContext="shape"
   transform="translate(14.9606,-14.9606)">
					<title
   id="title35">工作表.14</title>
					<g
   id="shadow14-6"
   v:groupContext="shadow"
   v:shadowOffsetX="2.12132"
   v:shadowOffsetY="-2.12132"
   v:shadowType="1"
   transform="matrix(1,0,0,1,2.12132,2.12132)"
   class="st2">
						<path
   d="M0 647.28 L26.77 647.28 L26.77 620.51 L0 620.51 L0 647.28 ZM1.57 622.08 L25.2 622.08 L25.2 645.7           L1.57 645.7 L1.57 622.08 Z"
   class="st3"
   id="path37" />
					</g>
					<path
   d="M0 647.28 L26.77 647.28 L26.77 620.51 L0 620.51 L0 647.28 ZM1.57 622.08 L25.2 622.08 L25.2 645.7 L1.57          645.7 L1.57 622.08 Z"
   class="st4"
   id="path40" />
				</g>
				<g
   id="shape15-10"
   v:mID="15"
   v:groupContext="shape">
					<title
   id="title43">工作表.15</title>
					<g
   id="shadow15-11"
   v:groupContext="shadow"
   v:shadowOffsetX="2.12132"
   v:shadowOffsetY="-2.12132"
   v:shadowType="1"
   transform="matrix(1,0,0,1,2.12132,2.12132)"
   class="st2">
						<path
   d="M56.69 603.97 L56.69 602.4 L49.61 602.4 L49.61 601.61 C49.6 599.44 47.84 597.68 45.67 597.67 L44.88           597.67 L44.88 590.59 L43.31 590.59 L43.31 597.67 L38.58 597.67 L38.58 590.59 L37.01 590.59 L37.01           597.67 L32.28 597.67 L32.28 590.59 L30.71 590.59 L30.71 597.67 L25.98 597.67 L25.98 590.59 L24.41           590.59 L24.41 597.67 L19.69 597.67 L19.69 590.59 L18.11 590.59 L18.11 597.67 L13.39 597.67 L13.39           590.59 L11.81 590.59 L11.81 597.67 L11.02 597.67 C8.85 597.68 7.09 599.44 7.09 601.61 L7.09           602.4 L0 602.4 L0 603.97 L7.09 603.97 L7.09 608.7 L0 608.7 L0 610.27 L7.09 610.27 L7.09 615           L0 615 L0 616.57 L7.09 616.57 L7.09 621.29 L0 621.29 L0 622.87 L7.09 622.87 L7.09 627.59 L0           627.59 L0 629.17 L7.09 629.17 L7.09 633.89 L0 633.89 L0 635.47 L7.09 635.47 L7.09 636.26 C7.09           638.43 8.85 640.19 11.02 640.19 L11.81 640.19 L11.81 647.28 L13.39 647.28 L13.39 640.19 L18.11           640.19 L18.11 647.28 L19.69 647.28 L19.69 640.19 L24.41 640.19 L24.41 647.28 L25.98 647.28 L25.98           640.19 L30.71 640.19 L30.71 647.28 L32.28 647.28 L32.28 640.19 L37.01 640.19 L37.01 647.28 L38.58           647.28 L38.58 640.19 L43.31 640.19 L43.31 647.28 L44.88 647.28 L44.88 640.19 L45.67 640.19 C47.84           640.19 49.6 638.43 49.61 636.26 L49.61 635.47 L56.69 635.47 L56.69 633.89 L49.61 633.89 L49.61           629.17 L56.69 629.17 L56.69 627.59 L49.61 627.59 L49.61 622.87 L56.69 622.87 L56.69 621.29 L49.61           621.29 L49.61 616.57 L56.69 616.57 L56.69 615 L49.61 615 L49.61 610.27 L56.69 610.27 L56.69           608.7 L49.61 608.7 L49.61 603.97 L56.69 603.97 ZM48.03 636.26 C48.03 637.56 46.97 638.62 45.67           638.62 L11.02 638.62 C9.72 638.62 8.66 637.56 8.66 636.26 L8.66 601.61 C8.66 600.31 9.72 599.25           11.02 599.25 L45.67 599.25 C46.97 599.25 48.03 600.31 48.03 601.61 L48.03 636.26 Z"
   class="st3"
   id="path45" />
					</g>
					<path
   d="M56.69 603.97 L56.69 602.4 L49.61 602.4 L49.61 601.61 C49.6 599.44 47.84 597.68 45.67 597.67 L44.88          597.67 L44.88 590.59 L43.31 590.59 L43.31 597.67 L38.58 597.67 L38.58 590.59 L37.01 590.59 L37.01          597.67 L32.28 597.67 L32.28 590.59 L30.71 590.59 L30.71 597.67 L25.98 597.67 L25.98 590.59 L24.41          590.59 L24.41 597.67 L19.69 597.67 L19.69 590.59 L18.11 590.59 L18.11 597.67 L13.39 597.67 L13.39          590.59 L11.81 590.59 L11.81 597.67 L11.02 597.67 C8.85 597.68 7.09 599.44 7.09 601.61 L7.09 602.4          L0 602.4 L0 603.97 L7.09 603.97 L7.09 608.7 L0 608.7 L0 610.27 L7.09 610.27 L7.09 615 L0 615 L0          616.57 L7.09 616.57 L7.09 621.29 L0 621.29 L0 622.87 L7.09 622.87 L7.09 627.59 L0 627.59 L0 629.17          L7.09 629.17 L7.09 633.89 L0 633.89 L0 635.47 L7.09 635.47 L7.09 636.26 C7.09 638.43 8.85 640.19          11.02 640.19 L11.81 640.19 L11.81 647.28 L13.39 647.28 L13.39 640.19 L18.11 640.19 L18.11 647.28          L19.69 647.28 L19.69 640.19 L24.41 640.19 L24.41 647.28 L25.98 647.28 L25.98 640.19 L30.71 640.19          L30.71 647.28 L32.28 647.28 L32.28 640.19 L37.01 640.19 L37.01 647.28 L38.58 647.28 L38.58 640.19          L43.31 640.19 L43.31 647.28 L44.88 647.28 L44.88 640.19 L45.67 640.19 C47.84 640.19 49.6 638.43          49.61 636.26 L49.61 635.47 L56.69 635.47 L56.69 633.89 L49.61 633.89 L49.61 629.17 L56.69 629.17          L56.69 627.59 L49.61 627.59 L49.61 622.87 L56.69 622.87 L56.69 621.29 L49.61 621.29 L49.61 616.57          L56.69 616.57 L56.69 615 L49.61 615 L49.61 610.27 L56.69 610.27 L56.69 608.7 L49.61 608.7 L49.61          603.97 L56.69 603.97 ZM48.03 636.26 C48.03 637.56 46.97 638.62 45.67 638.62 L11.02 638.62 C9.72          638.62 8.66 637.56 8.66 636.26 L8.66 601.61 C8.66 600.31 9.72 599.25 11.02 599.25 L45.67 599.25          C46.97 599.25 48.03 600.31 48.03 601.61 L48.03 636.26 Z"
   class="st4"
   id="path48" />
				</g>
			</g>
		</g>
		<g
   id="shape16-15"
   v:mID="16"
   v:groupContext="shape"
   transform="translate(0.25,-556.475)">
			<title
   id="title53">矩形.85</title>
			<desc
   id="desc55">TEE Worker</desc>
			<v:userDefs>
				<v:ud
   v:nameU="visVersion"
   v:val="VT0(15):26" />
			</v:userDefs>
			<v:textBlock
   v:margins="rect(4,4,4,4)"
   v:tabSpace="42.5197" />
			<v:textRect
   cx="52.5143"
   cy="633.106"
   width="105.03"
   height="28.3465" />
			<rect
   x="0"
   y="618.933"
   width="105.029"
   height="28.3465"
   class="st5"
   id="rect57" />
			<text
   x="19.22"
   y="637.31"
   class="st6"
   v:langID="2052"
   id="text59"><v:paragraph
   v:horizAlign="1" /><v:tabList />TEE Worker</text>		</g>
		<g
   id="group20-18"
   transform="translate(261.188,-586.449)"
   v:mID="20"
   v:groupContext="group">
			<title
   id="title62">工作表.20</title>
			<g
   id="group21-19"
   v:mID="21"
   v:groupContext="group">
				<title
   id="title64">工作表.21</title>
				<g
   id="shape22-20"
   v:mID="22"
   v:groupContext="shape"
   transform="translate(0,-41.5606)">
					<title
   id="title66">工作表.22</title>
					<g
   id="shadow22-21"
   v:groupContext="shadow"
   v:shadowOffsetX="2.12132"
   v:shadowOffsetY="-2.12132"
   v:shadowType="1"
   transform="matrix(1,0,0,1,2.12132,2.12132)"
   class="st2">
						<ellipse
   cx="19.3949"
   cy="641.738"
   rx="19.3949"
   ry="5.54141"
   class="st3"
   id="ellipse68" />
					</g>
					<ellipse
   cx="19.3949"
   cy="641.738"
   rx="19.3949"
   ry="5.54141"
   class="st7"
   id="ellipse71" />
				</g>
				<g
   id="shape23-25"
   v:mID="23"
   v:groupContext="shape"
   transform="translate(0,-27.7071)">
					<title
   id="title74">工作表.23</title>
					<g
   id="shadow23-26"
   v:groupContext="shadow"
   v:shadowOffsetX="2.12132"
   v:shadowOffsetY="-2.12132"
   v:shadowType="1"
   transform="matrix(1,0,0,1,2.12132,2.12132)"
   class="st2">
						<path
   d="M33.25 641.74 C32.42 641.74 31.86 641.18 31.86 640.35 C31.86 639.52 32.42 638.97 33.25 638.97 C34.08           638.97 34.63 639.52 34.63 640.35 C34.63 641.18 34.08 641.74 33.25 641.74 ZM19.39 636.2 C8.73           636.2 0 633.7 0 630.65 L0 641.74 C0 644.79 8.73 647.28 19.39 647.28 C30.06 647.28 38.79 644.79           38.79 641.74 L38.79 630.65 C38.79 633.7 30.06 636.2 19.39 636.2 Z"
   class="st3"
   id="path76" />
					</g>
					<path
   d="M33.25 641.74 C32.42 641.74 31.86 641.18 31.86 640.35 C31.86 639.52 32.42 638.97 33.25 638.97 C34.08          638.97 34.63 639.52 34.63 640.35 C34.63 641.18 34.08 641.74 33.25 641.74 ZM19.39 636.2 C8.73 636.2          0 633.7 0 630.65 L0 641.74 C0 644.79 8.73 647.28 19.39 647.28 C30.06 647.28 38.79 644.79 38.79 641.74          L38.79 630.65 C38.79 633.7 30.06 636.2 19.39 636.2 Z"
   class="st7"
   id="path79" />
				</g>
				<g
   id="shape24-30"
   v:mID="24"
   v:groupContext="shape"
   transform="translate(0,-13.8535)">
					<title
   id="title82">工作表.24</title>
					<g
   id="shadow24-31"
   v:groupContext="shadow"
   v:shadowOffsetX="2.12132"
   v:shadowOffsetY="-2.12132"
   v:shadowType="1"
   transform="matrix(1,0,0,1,2.12132,2.12132)"
   class="st2">
						<path
   d="M33.25 641.74 C32.42 641.74 31.86 641.18 31.86 640.35 C31.86 639.52 32.42 638.97 33.25 638.97 C34.08           638.97 34.63 639.52 34.63 640.35 C34.63 641.18 34.08 641.74 33.25 641.74 ZM19.39 636.2 C8.73           636.2 0 633.7 0 630.65 L0 641.74 C0 644.79 8.73 647.28 19.39 647.28 C30.06 647.28 38.79 644.79           38.79 641.74 L38.79 630.65 C38.79 633.7 30.06 636.2 19.39 636.2 Z"
   class="st3"
   id="path84" />
					</g>
					<path
   d="M33.25 641.74 C32.42 641.74 31.86 641.18 31.86 640.35 C31.86 639.52 32.42 638.97 33.25 638.97 C34.08          638.97 34.63 639.52 34.63 640.35 C34.63 641.18 34.08 641.74 33.25 641.74 ZM19.39 636.2 C8.73 636.2          0 633.7 0 630.65 L0 641.74 C0 644.79 8.73 647.28 19.39 647.28 C30.06 647.28 38.79 644.79 38.79 641.74          L38.79 630.65 C38.79 633.7 30.06 636.2 19.39 636.2 Z"
   class="st7"
   id="path87" />
				</g>
				<g
   id="shape25-35"
   v:mID="25"
   v:groupContext="shape">
					<title
   id="title90">工作表.25</title>
					<g
   id="shadow25-36"
   v:groupContext="shadow"
   v:shadowOffsetX="2.12132"
   v:shadowOffsetY="-2.12132"
   v:shadowType="1"
   transform="matrix(1,0,0,1,2.12132,2.12132)"
   class="st2">
						<path
   d="M33.25 641.74 C32.42 641.74 31.86 641.18 31.86 640.35 C31.86 639.52 32.42 638.97 33.25 638.97 C34.08           638.97 34.63 639.52 34.63 640.35 C34.63 641.18 34.08 641.74 33.25 641.74 ZM19.39 636.2 C8.73           636.2 0 633.7 0 630.65 L0 641.74 C0 644.79 8.73 647.28 19.39 647.28 C30.06 647.28 38.79 644.79           38.79 641.74 L38.79 630.65 C38.79 633.7 30.06 636.2 19.39 636.2 Z"
   class="st3"
   id="path92" />
					</g>
					<path
   d="M33.25 641.74 C32.42 641.74 31.86 641.18 31.86 640.35 C31.86 639.52 32.42 638.97 33.25 638.97 C34.08          638.97 34.63 639.52 34.63 640.35 C34.63 641.18 34.08 641.74 33.25 641.74 ZM19.39 636.2 C8.73 636.2          0 633.7 0 630.65 L0 641.74 C0 644.79 8.73 647.28 19.39 647.28 C30.06 647.28 38.79 644.79 38.79 641.74          L38.79 630.65 C38.79 633.7 30.06 636.2 19.39 636.2 Z"
   class="st7"
   id="path95" />
				</g>
			</g>
		</g>
		<g
   id="shape26-40"
   v:mID="26"
   v:groupContext="shape"
   transform="translate(228.068,-556.869)">
			<title
   id="title100">矩形.118</title>
			<desc
   id="desc102">Storage Miner</desc>
			<v:userDefs>
				<v:ud
   v:nameU="visVersion"
   v:val="VT0(15):26" />
			</v:userDefs>
			<v:textBlock
   v:margins="rect(4,4,4,4)"
   v:tabSpace="42.5197" />
			<v:textRect
   cx="52.5143"
   cy="633.106"
   width="105.03"
   height="28.3465" />
			<rect
   x="0"
   y="618.933"
   width="105.029"
   height="28.3465"
   class="st5"
   id="rect104" />
			<text
   x="11.92"
   y="637.31"
   class="st6"
   v:langID="2052"
   id="text106"><v:paragraph
   v:horizAlign="1" /><v:tabList />Storage Miner</text>		</g>
		<g
   id="shape27-43"
   v:mID="27"
   v:groupContext="shape"
   transform="translate(-368.19,629.817) rotate(-89.8416)">
			<title
   id="title109">工作表.27</title>
			<path
   d="M0 647.28 L541.2 647.28"
   class="st8"
   id="path111" />
		</g>
		<g
   id="shape30-46"
   v:mID="30"
   v:groupContext="shape"
   transform="translate(52.7643,-475.974)">
			<title
   id="title114">工作表.30</title>
			<path
   d="M-0 613.85 A42.5197 19.2589 0 0 1 42.52 633.11 A42.5197 14.1732 0 0 1 7.03 647.08 L6.67 647.09"
   class="st9"
   id="path116" />
		</g>
		<g
   id="group32-52"
   transform="translate(483.064,-586.449)"
   v:mID="32"
   v:groupContext="group">
			<title
   id="title119">工作表.32</title>
			<g
   id="shape33-53"
   v:mID="33"
   v:groupContext="shape">
				<title
   id="title121">工作表.33</title>
				<path
   d="M55.45 613.07 C54.2 610.07 50.76 608.68 47.76 609.92 C45.27 610.95 43.8 613.59 44.17 616.15 L34.72 620.1         C33.69 618.35 31.86 617.03 29.81 616.66 L29.81 606.48 C32.3 605.82 34.21 603.55 34.21 600.84 C34.21         597.62 31.57 594.98 28.35 594.98 C25.12 594.98 22.49 597.62 22.49 600.84 C22.49 603.55 24.39 605.82         26.88 606.48 L26.88 616.59 C24.76 616.95 23 618.27 21.97 620.03 L12.53 616.08 C12.89 613.51 11.5 610.88         8.94 609.85 C5.93 608.6 2.49 610 1.25 613 C0 616 1.39 619.45 4.39 620.69 C6.89 621.72 9.74 620.91 11.28         618.79 L20.95 622.74 C20.88 623.03 20.88 623.4 20.88 623.69 C20.88 625.3 21.39 626.84 22.34 628.09 L14.72         635.78 C12.45 634.46 9.52 634.75 7.62 636.66 C5.35 638.93 5.35 642.66 7.62 644.94 C9.89 647.21 13.62         647.21 15.89 644.94 C17.8 643.03 18.09 640.1 16.77 637.83 L24.54 630.07 C25.64 630.73 26.88 631.09 28.2         631.09 C28.27 631.09 28.27 631.09 28.35 631.09 C28.42 631.09 28.42 631.09 28.49 631.09 C29.81 631.09         31.06 630.73 32.16 630.07 L39.92 637.83 C38.6 640.1 38.89 643.03 40.8 645.01 C43.07 647.28 46.8 647.28         49.08 645.01 C51.35 642.74 51.35 639 49.08 636.73 C47.17 634.83 44.24 634.53 41.97 635.85 L34.35 628.16         C35.3 626.92 35.82 625.45 35.82 623.77 C35.82 623.47 35.82 623.11 35.74 622.81 L45.41 618.86 C46.95         620.91 49.81 621.79 52.3 620.76 C55.23 619.45 56.69 616.08 55.45 613.07 Z"
   class="st11"
   id="path123" />
			</g>
		</g>
		<g
   id="shape34-55"
   v:mID="34"
   v:groupContext="shape"
   transform="translate(-135.869,645.779) rotate(-90)">
			<title
   id="title127">工作表.34</title>
			<path
   d="M0 647.28 L555.38 647.28"
   class="st12"
   id="path129" />
		</g>
		<g
   id="shape35-58"
   v:mID="35"
   v:groupContext="shape"
   transform="translate(458.896,-556.875)">
			<title
   id="title132">矩形.151</title>
			<desc
   id="desc134">CESS Network</desc>
			<v:userDefs>
				<v:ud
   v:nameU="visVersion"
   v:val="VT0(15):26" />
			</v:userDefs>
			<v:textBlock
   v:margins="rect(4,4,4,4)"
   v:tabSpace="42.5197" />
			<v:textRect
   cx="52.5143"
   cy="633.106"
   width="105.03"
   height="28.3465" />
			<rect
   x="0"
   y="618.933"
   width="105.029"
   height="28.3465"
   class="st5"
   id="rect136" />
			<text
   x="12.69"
   y="637.31"
   class="st6"
   v:langID="2052"
   id="text138"><v:paragraph
   v:horizAlign="1" /><v:tabList />CESS Network</text>		</g>
		<g
   id="shape40-61"
   v:mID="40"
   v:groupContext="shape"
   transform="translate(12.8763,-476.992)">
			<title
   id="title141">矩形.59</title>
			<desc
   id="desc143">S G X</desc>
			<v:userDefs>
				<v:ud
   v:nameU="visVersion"
   v:val="VT0(15):26" />
			</v:userDefs>
			<v:textBlock
   v:margins="rect(4,4,4,4)"
   v:tabSpace="42.5197" />
			<v:textRect
   cx="21.2598"
   cy="633.106"
   width="42.52"
   height="28.3465" />
			<rect
   x="0"
   y="618.933"
   width="42.5197"
   height="28.3465"
   class="st5"
   id="rect145" />
			<text
   x="17.01"
   y="616.91"
   class="st13"
   v:langID="2052"
   id="text151"><v:paragraph
   v:horizAlign="1" /><v:tabList />S<v:newlineChar /><tspan
   x="15.53"
   dy="1.2em"
   class="st14"
   id="tspan147">G<v:newlineChar /></tspan><tspan
   x="16.3"
   dy="1.2em"
   class="st14"
   id="tspan149">X</tspan></text>		</g>
		<g
   id="shape42-66"
   v:mID="42"
   v:groupContext="shape"
   transform="translate(101.965,-483.992)">
			<title
   id="title154">矩形.55</title>
			<desc
   id="desc156">① 系统初始化与其它调度SGX交互获取共享密私钥</desc>
			<v:userDefs>
				<v:ud
   v:nameU="visVersion"
   v:val="VT0(15):26" />
			</v:userDefs>
			<v:textBlock
   v:margins="rect(4,4,4,4)"
   v:tabSpace="42.5197" />
			<v:textRect
   cx="82.7581"
   cy="639.256"
   width="165.52"
   height="16.046" />
			<rect
   x="0"
   y="631.233"
   width="165.516"
   height="16.046"
   class="st5"
   id="rect158" />
			<text
   x="4"
   y="635.60999"
   class="st15"
   v:langID="2052"
   id="text178"
   style="white-space:pre;inline-size:168.236;display:inline"
   xml:space="preserve"><tspan
     x="4"
     y="635.60999"
     id="tspan1019">① System initialization, </tspan><tspan
     x="4"
     y="650.61009"
     id="tspan1021">interacting with other SGX calls　</tspan><tspan
     x="4"
     y="665.61021"
     id="tspan1023">to obtain shared (private) keys</tspan></text>		</g>
		<g
   id="shape62-78"
   v:mID="62"
   v:groupContext="shape"
   transform="translate(78.1205,-394.357)">
			<title
   id="title181">工作表.62</title>
			<path
   d="M6.67 647.28 L7.03 647.28 L182.71 647.28"
   class="st17"
   id="path183" />
		</g>
		<g
   id="shape63-84"
   v:mID="63"
   v:groupContext="shape"
   transform="translate(76.9392,-387.278)">
			<title
   id="title186">矩形.63</title>
			<desc
   id="desc188">② 将文件送至打标</desc>
			<v:userDefs>
				<v:ud
   v:nameU="visVersion"
   v:val="VT0(15):26" />
			</v:userDefs>
			<v:textBlock
   v:margins="rect(4,4,4,4)"
   v:tabSpace="42.5197" />
			<v:textRect
   cx="88.9943"
   cy="622.106"
   width="177.99"
   height="50.345" />
			<rect
   x="0"
   y="596.934"
   width="177.989"
   height="50.345"
   class="st5"
   id="rect190" />
			<text
   x="4"
   y="625.75"
   class="st15"
   v:langID="2052"
   id="text194"><v:paragraph /><v:tabList />② Send files for marking</text>		</g>
		<g
   id="shape64-88"
   v:mID="64"
   v:groupContext="shape"
   transform="translate(519.837,-505.151)">
			<title
   id="title197">矩形.64</title>
			<desc
   id="desc199">链上记录了共享密公钥</desc>
			<v:userDefs>
				<v:ud
   v:nameU="visVersion"
   v:val="VT0(15):26" />
			</v:userDefs>
			<v:textBlock
   v:margins="rect(4,4,4,4)"
   v:tabSpace="42.5197" />
			<v:textRect
   cx="82.7581"
   cy="630.563"
   width="165.52"
   height="33.4322" />
			<rect
   x="0"
   y="613.847"
   width="165.516"
   height="33.4322"
   class="st5"
   id="rect201" />
			<text
   x="4"
   y="634.21002"
   class="st19"
   v:langID="2052"
   id="text203"
   style="white-space:pre;inline-size:155.996;display:inline;-inkscape-font-specification:'Calibri Bold';font-family:Calibri;font-weight:bold;font-style:normal;font-stretch:normal;font-variant:normal"
   xml:space="preserve"><tspan
     x="4"
     y="634.21002"
     id="tspan1025">Shared secret (public) key </tspan><tspan
     x="4"
     y="649.21013"
     id="tspan1027">recorded on the chain</tspan></text>		</g>
		<g
   id="shape65-91"
   v:mID="65"
   v:groupContext="shape"
   transform="translate(11.8384,-288.933)">
			<title
   id="title206">矩形.65</title>
			<v:userDefs>
				<v:ud
   v:nameU="visVersion"
   v:val="VT0(15):26" />
			</v:userDefs>
			<rect
   x="0"
   y="570.177"
   width="130.394"
   height="77.1024"
   rx="8.50394"
   ry="8.50394"
   class="st1"
   id="rect208" />
		</g>
		<g
   id="shape66-93"
   v:mID="66"
   v:groupContext="shape"
   transform="translate(54.7635,-310.486)">
			<title
   id="title211">工作表.66</title>
			<path
   d="M-0 613.85 A42.5197 19.2589 0 0 1 42.52 633.11 A42.5197 14.1732 0 0 1 7.03 647.08 L6.67 647.09"
   class="st9"
   id="path213" />
		</g>
		<g
   id="shape67-98"
   v:mID="67"
   v:groupContext="shape"
   transform="translate(14.8755,-311.505)">
			<title
   id="title216">矩形.67</title>
			<desc
   id="desc218">S G X</desc>
			<v:userDefs>
				<v:ud
   v:nameU="visVersion"
   v:val="VT0(15):26" />
			</v:userDefs>
			<v:textBlock
   v:margins="rect(4,4,4,4)"
   v:tabSpace="42.5197" />
			<v:textRect
   cx="21.2598"
   cy="633.106"
   width="42.52"
   height="28.3465" />
			<rect
   x="0"
   y="618.933"
   width="42.5197"
   height="28.3465"
   class="st5"
   id="rect220" />
			<text
   x="17.01"
   y="616.91"
   class="st13"
   v:langID="2052"
   id="text226"><v:paragraph
   v:horizAlign="1" /><v:tabList />S<v:newlineChar /><tspan
   x="15.53"
   dy="1.2em"
   class="st14"
   id="tspan222">G<v:newlineChar /></tspan><tspan
   x="16.3"
   dy="1.2em"
   class="st14"
   id="tspan224">X</tspan></text>		</g>
		<g
   id="shape68-103"
   v:mID="68"
   v:groupContext="shape"
   transform="translate(106.948,-318.505)">
			<title
   id="title229">矩形.68</title>
			<desc
   id="desc231">③ TagGen</desc>
			<v:userDefs>
				<v:ud
   v:nameU="visVersion"
   v:val="VT0(15):26" />
			</v:userDefs>
			<v:textBlock
   v:margins="rect(4,4,4,4)"
   v:tabSpace="42.5197" />
			<v:textRect
   cx="35.254"
   cy="639.256"
   width="70.51"
   height="16.046" />
			<rect
   x="0"
   y="631.233"
   width="70.508"
   height="16.046"
   class="st5"
   id="rect233" />
			<text
   x="4"
   y="643.77"
   class="st20"
   v:langID="2052"
   id="text239"><v:paragraph /><v:tabList />③<tspan
   class="st21"
   id="tspan235"> </tspan><tspan
   class="st21"
   id="tspan237">TagGen</tspan></text>		</g>
		<g
   id="shape71-108"
   v:mID="71"
   v:groupContext="shape"
   transform="translate(486.283,1061.97) rotate(180)">
			<title
   id="title242">工作表.71</title>
			<path
   d="M6.67 647.28 L7.03 647.28 L184.25 647.28"
   class="st17"
   id="path244" />
		</g>
		<g
   id="shape72-113"
   v:mID="72"
   v:groupContext="shape"
   transform="translate(319.547,-224.542)">
			<title
   id="title247">矩形.72</title>
			<desc
   id="desc249">⑤ 验证、存储与上链</desc>
			<v:userDefs>
				<v:ud
   v:nameU="visVersion"
   v:val="VT0(15):26" />
			</v:userDefs>
			<v:textBlock
   v:margins="rect(4,4,4,4)"
   v:tabSpace="42.5197" />
			<v:textRect
   cx="88.9943"
   cy="622.106"
   width="177.99"
   height="50.345" />
			<rect
   x="0"
   y="596.934"
   width="177.989"
   height="50.345"
   class="st5"
   id="rect251" />
			<text
   x="4"
   y="625.75"
   class="st15"
   v:langID="2052"
   id="text259"><v:paragraph /><v:tabList />⑤ Verify, store and upload</text>		</g>
		<g
   id="shape74-119"
   v:mID="74"
   v:groupContext="shape"
   transform="translate(249.814,1045.56) rotate(180)">
			<title
   id="title262">工作表.74</title>
			<path
   d="M6.68 647.28 L7.03 647.28 L168.69 647.28"
   class="st22"
   id="path264" />
		</g>
		<g
   id="shape75-125"
   v:mID="75"
   v:groupContext="shape"
   transform="translate(98.423,-240.207)">
			<title
   id="title267">矩形.75</title>
			<desc
   id="desc269">④ 数据返回</desc>
			<v:userDefs>
				<v:ud
   v:nameU="visVersion"
   v:val="VT0(15):26" />
			</v:userDefs>
			<v:textBlock
   v:margins="rect(4,4,4,4)"
   v:tabSpace="42.5197" />
			<v:textRect
   cx="88.9943"
   cy="622.106"
   width="177.99"
   height="50.345" />
			<rect
   x="0"
   y="596.934"
   width="177.989"
   height="50.345"
   class="st5"
   id="rect271" />
			<text
   x="4"
   y="625.75"
   class="st15"
   v:langID="2052"
   id="text275"><v:paragraph /><v:tabList />④ Data return<tspan
   class="st16"
   id="tspan273"
   style="-inkscape-font-specification:'Calibri Bold';font-family:Calibri;font-weight:bold;font-style:normal;font-stretch:normal;font-variant:normal" /></text>		</g>
		<g
   id="shape78-129"
   v:mID="78"
   v:groupContext="shape"
   transform="translate(302.031,-163.953)">
			<title
   id="title278">工作表.78</title>
			<path
   d="M6.67 647.28 L7.03 647.28 L184.25 647.28"
   class="st23"
   id="path280" />
		</g>
		<g
   id="shape79-135"
   v:mID="79"
   v:groupContext="shape"
   transform="translate(330.378,-152.937)">
			<title
   id="title283">矩形.79</title>
			<desc
   id="desc285">⑥ Chal</desc>
			<v:userDefs>
				<v:ud
   v:nameU="visVersion"
   v:val="VT0(15):26" />
			</v:userDefs>
			<v:textBlock
   v:margins="rect(4,4,4,4)"
   v:tabSpace="42.5197" />
			<v:textRect
   cx="88.9943"
   cy="622.106"
   width="177.99"
   height="50.345" />
			<rect
   x="0"
   y="596.934"
   width="177.989"
   height="50.345"
   class="st5"
   id="rect287" />
			<text
   x="4"
   y="626.1"
   class="st25"
   v:langID="2052"
   id="text293"><v:paragraph /><v:tabList />⑥<tspan
   class="st26"
   id="tspan289">  </tspan><tspan
   class="st26"
   id="tspan291">Chal</tspan></text>		</g>
		<g
   id="shape80-140"
   v:mID="80"
   v:groupContext="shape"
   transform="translate(85.0394,-127.446)">
			<title
   id="title296">工作表.80</title>
			<path
   d="M6.67 647.28 L7.03 647.28 L170.08 647.28"
   class="st17"
   id="path298" />
		</g>
		<g
   id="shape81-145"
   v:mID="81"
   v:groupContext="shape"
   transform="translate(131.13,-117.905)">
			<title
   id="title301">矩形.81</title>
			<desc
   id="desc303">⑦ ProofGen</desc>
			<v:userDefs>
				<v:ud
   v:nameU="visVersion"
   v:val="VT0(15):26" />
			</v:userDefs>
			<v:textBlock
   v:margins="rect(4,4,4,4)"
   v:tabSpace="42.5197" />
			<v:textRect
   cx="88.9943"
   cy="622.106"
   width="177.99"
   height="50.345" />
			<rect
   x="0"
   y="596.934"
   width="177.989"
   height="50.345"
   class="st5"
   id="rect305" />
			<text
   x="4"
   y="626.1"
   class="st25"
   v:langID="2052"
   id="text311"><v:paragraph /><v:tabList />⑦<tspan
   class="st26"
   id="tspan307">  </tspan><tspan
   class="st26"
   id="tspan309">ProofGen</tspan></text>		</g>
		<g
   id="shape84-150"
   v:mID="84"
   v:groupContext="shape"
   transform="translate(12.5136,-42.5197)">
			<title
   id="title314">矩形.84</title>
			<v:userDefs>
				<v:ud
   v:nameU="visVersion"
   v:val="VT0(15):26" />
			</v:userDefs>
			<rect
   x="0"
   y="570.177"
   width="130.394"
   height="77.1024"
   rx="8.50394"
   ry="8.50394"
   class="st1"
   id="rect316" />
		</g>
		<g
   id="shape85-152"
   v:mID="85"
   v:groupContext="shape"
   transform="translate(55.4387,-64.0731)">
			<title
   id="title319">工作表.85</title>
			<path
   d="M-0 613.85 A42.5197 19.2589 0 0 1 42.52 633.11 A42.5197 14.1732 0 0 1 7.03 647.08 L6.67 647.09"
   class="st9"
   id="path321" />
		</g>
		<g
   id="shape86-157"
   v:mID="86"
   v:groupContext="shape"
   transform="translate(15.5507,-65.0912)">
			<title
   id="title324">矩形.86</title>
			<desc
   id="desc326">S G X</desc>
			<v:userDefs>
				<v:ud
   v:nameU="visVersion"
   v:val="VT0(15):26" />
			</v:userDefs>
			<v:textBlock
   v:margins="rect(4,4,4,4)"
   v:tabSpace="42.5197" />
			<v:textRect
   cx="21.2598"
   cy="633.106"
   width="42.52"
   height="28.3465" />
			<rect
   x="0"
   y="618.933"
   width="42.5197"
   height="28.3465"
   class="st5"
   id="rect328" />
			<text
   x="17.01"
   y="616.91"
   class="st13"
   v:langID="2052"
   id="text334"><v:paragraph
   v:horizAlign="1" /><v:tabList />S<v:newlineChar /><tspan
   x="15.53"
   dy="1.2em"
   class="st14"
   id="tspan330">G<v:newlineChar /></tspan><tspan
   x="16.3"
   dy="1.2em"
   class="st14"
   id="tspan332">X</tspan></text>		</g>
		<g
   id="shape19-162"
   v:mID="19"
   v:groupContext="shape"
   transform="translate(-594.515,631.606) rotate(-90)">
			<title
   id="title337">工作表.19</title>
			<path
   d="M0 647.28 L540.8 647.28"
   class="st27"
   id="path339" />
		</g>
		<g
   id="shape83-165"
   v:mID="83"
   v:groupContext="shape"
   transform="translate(103.478,-68.3687)">
			<title
   id="title342">矩形.83</title>
			<desc
   id="desc344">⑧ Verify</desc>
			<v:userDefs>
				<v:ud
   v:nameU="visVersion"
   v:val="VT0(15):26" />
			</v:userDefs>
			<v:textBlock
   v:margins="rect(4,4,4,4)"
   v:tabSpace="42.5197" />
			<v:textRect
   cx="35.254"
   cy="639.256"
   width="70.51"
   height="16.046" />
			<rect
   x="0"
   y="631.233"
   width="70.508"
   height="16.046"
   class="st5"
   id="rect346" />
			<text
   x="4"
   y="643.77"
   class="st20"
   v:langID="2052"
   id="text352"><v:paragraph /><v:tabList />⑧<tspan
   class="st21"
   id="tspan348"> </tspan><tspan
   class="st21"
   id="tspan350">Verify</tspan></text>		</g>
	</g>
</svg>
